<?xml version="1.0" standalone="no"?>
<!DOCTYPE svg PUBLIC "-//W3C//DTD SVG 1.1//EN" "http://www.w3.org/Graphics/SVG/1.1/DTD/svg11.dtd" >
<svg>
<metadata>
Created by FontForge 20120731 at Wed Mar 29 01:28:28 2023
 By www
Copyright (c) 2019 by Nikolas Wrobel, B.A..
</metadata>
<defs>
<font id="GrandSlang-B-Side" horiz-adv-x="0" >
  <font-face 
    font-family="GrandSlang B-Side"
    font-weight="400"
    font-stretch="normal"
    units-per-em="1000"
    panose-1="0 0 5 0 0 0 0 0 0 0"
    ascent="800"
    descent="-200"
    x-height="494.5"
    cap-height="693"
    bbox="-500 -292 1551 898"
    underline-thickness="50"
    underline-position="-150"
    unicode-range="U+0020-2260"
  />
<missing-glyph horiz-adv-x="500" 
d="M410 750v-1000h-317v1000h317zM333 683h-165v-33h65v-37h-66v-33h166v33h-66v37h66v33zM267 554h-100v-104h166v34h-66v70zM233 520v-36h-33v36h33zM333 423h-166v-33h66v-37h-66v-33h100v70h66v33zM333 363h-33v-66h-133v-34h166v100zM333 241h-100v-56h34v23h33v-47
h-100v80h-33v-113h166v113zM333 68h-166v-113h166v113zM300 35v-47h-100v47h100zM333 -68h-166v-33h70l-70 -47v-33h166v33h-102l70 47h32v33z" />
    <glyph glyph-name="f_i" unicode="fi" horiz-adv-x="571" 
d="M33 441l50 59q0 147 142 223q97 52 205 48q73 -2 80 -30q1 -2 1 -4q0 -17 -17.5 -25.5t-50 -10t-63.5 0t-74.5 5t-65.5 3.5q-16 0 -29 -7t-21 -18.5t-13.5 -28t-8 -32t-3.5 -34t-1 -30.5t0.5 -24t0.5 -13l1 -24v1h165l-50 -59h-114v-393l7 -48h-98l7 40v401h-50zM483 500
v-440l4 -60h-90l4 60v440h82z" />
    <glyph glyph-name="f_l" unicode="fl" horiz-adv-x="568" 
d="M512 152q3 -140 60 -152q-80 0 -109.5 16t-32.5 72v102l-1 461q0 16 -7 28t-20.5 18t-28.5 10t-35.5 4.5t-35.5 0.5t-34.5 -1t-27.5 -1q-16 0 -29 -7.5t-21 -19t-13.5 -28t-8 -32t-3.5 -33.5t-1 -30t0.5 -24t0.5 -13l1 -24v1h155l-50 -59h-104v-393l7 -48h-98l7 40v401
h-50l50 59q0 143 133 217q95 53 201 47q80 -3 92 -38q2 -4 2 -9v-522q0 -6 0.5 -20.5t0.5 -22.5z" />
    <glyph glyph-name=".notdef" horiz-adv-x="500" 
d="M410 750v-1000h-317v1000h317zM333 683h-165v-33h65v-37h-66v-33h166v33h-66v37h66v33zM267 554h-100v-104h166v34h-66v70zM233 520v-36h-33v36h33zM333 423h-166v-33h66v-37h-66v-33h100v70h66v33zM333 363h-33v-66h-133v-34h166v100zM333 241h-100v-56h34v23h33v-47
h-100v80h-33v-113h166v113zM333 68h-166v-113h166v113zM300 35v-47h-100v47h100zM333 -68h-166v-33h70l-70 -47v-33h166v33h-102l70 47h32v33z" />
    <glyph glyph-name=".null" 
 />
    <glyph glyph-name="nonmarkingreturn" horiz-adv-x="333" 
 />
    <glyph glyph-name="space" unicode=" " horiz-adv-x="221" 
 />
    <glyph glyph-name="exclam" unicode="!" horiz-adv-x="202" 
d="M47 637q0 25 15.5 43.5t38.5 18.5q22 0 35.5 -18.5t13.5 -43.5q0 -32 -15.5 -181t-33.5 -262zM46 44q0 21 16.5 37.5t39.5 16.5q21 0 37.5 -16.5t16.5 -37.5q0 -23 -16.5 -39.5t-37.5 -16.5q-23 0 -39.5 16.5t-16.5 39.5z" />
    <glyph glyph-name="quotedbl" unicode="&#x22;" horiz-adv-x="373" 
d="M160 729q0 -16 -8 -28v-1q-15 -22 -27 -56.5t-17 -57.5l-4 -24q-10 85 -44 134l-3 4h1q-8 14 -8 29q0 21 16.5 37.5t39.5 16.5q21 0 37.5 -16.5t16.5 -37.5zM323 729q0 -16 -8 -28v-1q-15 -22 -27 -56.5t-16 -57.5l-5 -24q-10 85 -44 134l-3 4h1q-8 14 -8 29
q0 21 16.5 37.5t39.5 16.5q21 0 37.5 -16.5t16.5 -37.5z" />
    <glyph glyph-name="numbersign" unicode="#" horiz-adv-x="692" 
d="M672 458h-215v-196h215v-8h-215v-228h-8v228h-202v-228h-8v228h-219v8h219v196h-219v8h219v212h8v-212h202v212h8v-212h215v-8zM449 262v196h-202v-196h202z" />
    <glyph glyph-name="dollar" unicode="$" horiz-adv-x="637" 
d="M337 394q56 -19 90.5 -34.5t74 -41.5t59 -61.5t20.5 -80.5q1 -95 -66 -141.5t-172 -48.5h-6v-63h-10v63q-28 0 -54 2.5t-41.5 4t-41 9t-32 9t-36 12t-32.5 11.5l-32 268h6q16 -164 82.5 -233.5t180.5 -71.5v288q-9 3 -26 10q-51 19 -77 30t-67 33t-62 42t-37.5 51
t-17.5 67q0 19 5 40t22 47t43.5 46.5t74 35.5t109.5 17h33v42h10v-42q52 0 107 -4.5t84 -9.5l29 -4l28 -233h-5q-12 126 -109 188q-58 38 -134 49v-296zM91 572q1 -44 39.5 -79t72 -49.5t114.5 -42.5q7 -3 10 -4v295q-95 12 -166.5 -21.5t-69.5 -98.5zM343 -3q50 1 86.5 14
t54.5 34t26 41t8 40q0 52 -46 86t-135 69v-284h6z" />
    <glyph glyph-name="percent" unicode="%" horiz-adv-x="691" 
d="M633 711l9 -8l-585 -715l-9 7zM303 661q51 -43 54 -111.5t-44 -122.5q-47 -53 -116.5 -60t-120.5 37q-51 43 -53.5 112t44.5 122t116.5 60t119.5 -37zM268 476q48 54 58.5 101t-25.5 81q-41 29 -90 13.5t-102 -67.5q-50 -49 -59 -105t28 -88q40 -29 90.5 -10t99.5 75z
M615 294q51 -43 53.5 -112t-44.5 -122t-116.5 -60t-120.5 36q-50 44 -53 112.5t44 121.5q47 54 116.5 61t120.5 -37zM580 108q48 55 58 101.5t-25 81.5q-40 29 -90 13.5t-102 -67.5q-50 -49 -59 -105t28 -88q40 -29 90.5 -10t99.5 74z" />
    <glyph glyph-name="ampersand" unicode="&#x26;" horiz-adv-x="820" 
d="M820 0h-127q-56 54 -117 109q-96 -128 -224 -129q-112 -1 -194.5 54.5t-82.5 143.5q0 48 16.5 83.5t47.5 56.5t58.5 32t65.5 20q-83 66 -116 104t-33 80q0 60 64 112t164 53q54 0 97 -15t68 -40t37.5 -53.5t12.5 -56.5q0 -59 -56 -102.5t-143 -64.5q221 -176 258 -207
l104 128h11l-106 -136q94 -79 195 -172zM199 579q0 -42 32 -79.5t116 -103.5q58 29 93.5 77t35.5 106q0 55 -30 93.5t-104 38.5t-108.5 -39t-34.5 -93zM352 -9q58 0 116.5 35.5t98.5 91.5q-117 105 -284 235q-119 -78 -119 -175q0 -83 53 -135t135 -52z" />
    <glyph glyph-name="quotesingle" unicode="'" horiz-adv-x="210" 
d="M160 729q0 -16 -8 -28v-1q-15 -22 -27 -56.5t-17 -57.5l-4 -24q-10 85 -44 134l-3 4h1q-8 14 -8 29q0 21 16.5 37.5t39.5 16.5q21 0 37.5 -16.5t16.5 -37.5z" />
    <glyph glyph-name="parenleft" unicode="(" horiz-adv-x="243" 
d="M105 360q0 -227 108 -406h-9q-174 176 -174 406q0 234 174 408h9q-108 -178 -108 -408z" />
    <glyph glyph-name="parenright" unicode=")" horiz-adv-x="243" 
d="M138 360q0 230 -108 408h9q174 -174 174 -408q0 -230 -174 -406h-9q108 179 108 406z" />
    <glyph glyph-name="asterisk" unicode="*" horiz-adv-x="386" 
d="M170 566l-45 140l69 -133l67 130l-44 -137l139 42l-130 -66l130 -68l-139 45l45 -142l-68 133l-66 -130l42 139l-137 -44l130 67l-133 69z" />
    <glyph glyph-name="plus" unicode="+" horiz-adv-x="570" 
d="M274 564h18v-249h248v-18h-248v-243h-18v243h-244v18h244v249z" />
    <glyph glyph-name="comma" unicode="," horiz-adv-x="210" 
d="M160 53q1 -15 -1.5 -35.5t-23 -61t-59.5 -70.5h-5q4 3 10.5 8.5t19.5 21t18.5 29t-2 29.5t-32.5 26q-35 16 -35 52q0 21 16.5 37.5t39.5 16.5q21 0 37.5 -16.5t16.5 -36.5z" />
    <glyph glyph-name="hyphen" unicode="-" horiz-adv-x="451" 
d="M406 310v-14h-361v14h361z" />
    <glyph glyph-name="period" unicode="." horiz-adv-x="183" 
d="M92 -6q-21 0 -36.5 15.5t-15.5 36.5q0 20 15.5 35.5t36.5 15.5q20 0 35.5 -15.5t15.5 -35.5q0 -21 -15.5 -36.5t-35.5 -15.5z" />
    <glyph glyph-name="slash" unicode="/" horiz-adv-x="503" 
d="M40 -56l407 815l16 -8l-406 -815z" />
    <glyph glyph-name="zero" unicode="0" horiz-adv-x="712" 
d="M682 353q0 -148 -99 -255t-226 -107q-128 0 -227.5 107t-99.5 255t99.5 255t227.5 107q127 0 226 -107t99 -255zM590 354q0 148 -67 251t-166 103q-98 0 -165 -103t-67 -251t67 -250.5t166 -102.5t165.5 102.5t66.5 250.5z" />
    <glyph glyph-name="one" unicode="1" horiz-adv-x="367" 
d="M340 2q-25 1 -31 9q-8 9 -8 32q-7 297 1 658l-242 -163l3 -1l149 63q11 4 11 -9q8 -242 -1 -568q-1 -16 -79 -21v-2h197v2z" />
    <glyph glyph-name="two" unicode="2" horiz-adv-x="588" 
d="M30 0q10 85 19 118q16 60 50 103.5t76.5 70t85.5 48t88.5 50t73.5 63.5q74 79 40 158q-26 61 -99 85q-92 31 -175 -24q-85 -54 -124 -181v159q57 50 153 62.5t186.5 -21t127.5 -104.5l6 -9t11 -25t8.5 -38.5t-5.5 -47.5t-25 -54q-27 -38 -78 -68t-107 -54t-113.5 -55.5
t-109.5 -90t-83 -139.5h244q56 0 96.5 8.5t65 21.5t42.5 36.5t28.5 45.5t23.5 55q3 9 5 14h5l-44 -187h-472z" />
    <glyph glyph-name="three" unicode="3" horiz-adv-x="551" 
d="M27 -21h3q38 0 88.5 11t104 31t102.5 48.5t84 64t49 77.5t-2 88q-36 75 -99.5 86.5t-178.5 -26.5v8q149 34 211.5 94.5t46.5 150.5q-11 62 -72 89q-71 31 -148 -14q-92 -54 -136 -196v159q64 51 153 65.5t168 -14t111 -95.5q28 -65 -17 -118t-125 -79q141 0 159 -79
q15 -70 -67 -161q-95 -107 -245 -161q-92 -33 -185 -35h-5v6z" />
    <glyph glyph-name="four" unicode="4" horiz-adv-x="637" 
d="M449 209h160v-11h-160l-1 -198h-85l1 198h-334l330 525h171q-183 -151 -300 -272t-182 -242h315v200l85 100v-300z" />
    <glyph glyph-name="five" unicode="5" horiz-adv-x="627" 
d="M56 189q26 -69 101 -129t115 -60q58 0 103 28.5t66 73t24.5 99.5t-21.5 109q-91 212 -338 82l-34 -18l91 308h414l-31 -72h-393l-65 -221q105 61 209 71t177.5 -32.5t92.5 -125.5q14 -61 -13 -121.5t-75.5 -102t-104 -67.5t-99.5 -26q-53 0 -114 11t-94 27l-15 166h4z
" />
    <glyph glyph-name="six" unicode="6" horiz-adv-x="611" 
d="M106 493q61 89 190 162.5t254 110.5l2 -8q-67 -23 -134.5 -61t-128 -87.5t-102 -112t-49.5 -125.5q118 93 246 65q98 -21 151 -99q59 -89 18 -188q-25 -57 -82 -107q-72 -53 -143.5 -63.5t-127 15t-96 78.5t-56.5 120t-2.5 147t60.5 153zM138 369q-12 -87 14.5 -179
t83.5 -144q89 -75 161.5 -24t77.5 174q3 77 -24 131.5t-73 78.5t-109.5 15.5t-130.5 -52.5z" />
    <glyph glyph-name="seven" unicode="7" horiz-adv-x="592" 
d="M74 693h498q-163 -213 -253 -375t-109 -318h-130q24 77 80 168t112 159.5t130.5 158.5t110.5 140l-463 -4z" />
    <glyph glyph-name="eight" unicode="8" horiz-adv-x="619" 
d="M47 178q0 33 20 64t53 53.5t64.5 38t63.5 25.5q-84 28 -141 79.5t-57 110.5q0 71 72.5 120t187.5 50q119 1 189 -48.5t70 -121.5q0 -100 -213 -166q127 -39 171.5 -84.5t44.5 -120.5q0 -87 -79 -142t-183 -56q-99 -1 -181 55.5t-82 142.5zM141 549q0 -58 43.5 -91.5
t155.5 -69.5q60 18 99 60.5t39 100.5q0 73 -41.5 118t-126.5 45q-86 0 -127.5 -45t-41.5 -118zM143 178q0 -84 46.5 -135.5t120.5 -51.5q80 0 123.5 50.5t42.5 136.5q0 61 -48.5 103t-165.5 74q-39 -12 -64 -30t-36.5 -43t-15 -47.5t-3.5 -56.5z" />
    <glyph glyph-name="nine" unicode="9" horiz-adv-x="623" 
d="M487 179q-71 -85 -202.5 -152.5t-250.5 -91.5l-2 8q179 40 298.5 135t147.5 224q-127 -83 -253 -43q-94 29 -139 111q-51 93 -2 188q30 56 91 101q76 46 147.5 50.5t123 -26t86 -86.5t43 -124t-13 -146.5t-74.5 -147.5zM478 305q21 82 2 177t-71 154q-38 42 -84 50.5
t-84 -11.5t-64 -65.5t-26 -102.5q1 -159 92 -217.5t235 15.5z" />
    <glyph glyph-name="colon" unicode=":" horiz-adv-x="242" 
d="M122 323q-21 0 -36.5 15.5t-15.5 36.5q0 20 15.5 35.5t36.5 15.5q20 0 35.5 -15.5t15.5 -35.5q0 -21 -15.5 -36.5t-35.5 -15.5zM122 63q-21 0 -36.5 15.5t-15.5 36.5q0 20 15.5 35.5t36.5 15.5q20 0 35.5 -15.5t15.5 -35.5q0 -21 -15.5 -36.5t-35.5 -15.5z" />
    <glyph glyph-name="semicolon" unicode=";" horiz-adv-x="250" 
d="M122 323q-21 0 -36.5 15.5t-15.5 36.5q0 20 15.5 35.5t36.5 15.5q20 0 35.5 -15.5t15.5 -35.5q0 -21 -15.5 -36.5t-35.5 -15.5zM180 53q1 -15 -1.5 -35.5t-23 -61t-59.5 -70.5h-5q4 3 10.5 8.5t19.5 21t18.5 29t-2 29.5t-32.5 26q-35 16 -35 52q0 21 16.5 37.5t39.5 16.5
q21 0 37.5 -16.5t16.5 -36.5z" />
    <glyph glyph-name="equal" unicode="=" horiz-adv-x="466" 
d="M436 385v-18h-406v18h406zM436 245v-18h-406v18h406z" />
    <glyph glyph-name="question" unicode="?" horiz-adv-x="554" 
d="M164 165q-4 14 -1.5 38.5t7.5 50t30.5 56t67.5 56.5q6 4 15.5 10.5t34.5 28.5t44 46t34.5 61t16.5 75q1 54 -35 77t-85 25q-107 0 -155.5 -53.5t-51.5 -161.5l-6 -1l3 215q16 2 41.5 5.5t82 8t86.5 2.5q54 -3 97 -23t67 -47t36 -54t11 -47q-1 -33 -14 -61t-38.5 -50.5
t-48 -38t-55 -35.5t-47.5 -30q-31 -20 -51.5 -36t-47 -48t-38.5 -69zM211 -6q-21 0 -36.5 15.5t-15.5 36.5q0 20 15.5 35.5t36.5 15.5q20 0 35.5 -15.5t15.5 -35.5q0 -21 -15.5 -36.5t-35.5 -15.5z" />
    <glyph glyph-name="at" unicode="@" horiz-adv-x="787" 
d="M75 241q0 138 98 235.5t235 97.5q142 0 221 -84q83 -88 83 -223q0 -41 -18 -79q-40 -84 -143 -99q-100 -9 -110 50q-68 -51 -130.5 -35.5t-84.5 72.5q-27 63 12.5 134t112.5 94q78 25 151 -36l8 28h51l-68 -206l-1 -4q-17 -50 3.5 -72.5t54.5 -18.5h1q103 16 137 95
q18 37 18 77q0 132 -81 218q-78 83 -217 83q-136 0 -232 -96t-96 -231t96 -231.5t232 -96.5q12 0 37 2.5t73.5 20.5t73.5 48l4 -4q-37 -44 -115 -63q-44 -9 -73 -9q-137 0 -235 98t-98 235zM297 303q-28 -50 -17.5 -106t51.5 -84q7 -5 14.5 -7t16 -1t15 2.5t16.5 7t15.5 8.5
t16.5 10t15 9q-5 25 6 58l54 162q-15 17 -33 26q-39 26 -89.5 -2t-80.5 -83z" />
    <glyph glyph-name="A" unicode="A" horiz-adv-x="746" 
d="M159 257l-45 -93q-8 -21 -13 -38.5t-8 -30.5t-0.5 -24t3.5 -18.5t10 -14.5t13 -10.5t18 -8.5t20 -6.5l24 -6t25 -6.5h-184l298 623q-8 16 -28.5 29.5t-47 25.5t-31.5 15h172l359 -693h-109l-130 257h-346zM500 268l-172 341l-164 -341h336z" />
    <glyph glyph-name="B" unicode="B" horiz-adv-x="665" 
d="M96 0v674l-58 19h340q127 0 200.5 -44t73.5 -131q0 -70 -60 -116.5t-149 -46.5h-77q78 0 147.5 -47t69.5 -129q0 -48 -21 -84.5t-55.5 -56t-72 -29t-75.5 -9.5h-263zM191 362h212q64 0 105 42.5t41 110.5q0 89 -48.5 127t-184.5 38h-125v-318zM191 13h168q132 0 132 164
q0 176 -159 176h-141v-340z" />
    <glyph glyph-name="C" unicode="C" horiz-adv-x="782" 
d="M132 383q0 -97 35 -182t100.5 -138t144.5 -53q103 0 179.5 38.5t172.5 134.5l-14 -27q-26 -28 -56.5 -53.5t-74 -53.5t-97.5 -44.5t-110 -16.5q-163 1 -277.5 105t-114.5 250q0 74 30 140t80.5 111t117.5 76t141.5 36t151.5 -10q32 -6 61.5 -15t59 -20t32.5 -12l4 -174
q-40 82 -99.5 134.5t-121.5 70.5t-124.5 7.5t-111 -48t-79 -104.5t-30.5 -152z" />
    <glyph glyph-name="D" unicode="D" horiz-adv-x="756" 
d="M40 693h299q166 0 276.5 -100.5t110.5 -245.5t-108 -246t-272 -101h-260l16 36v641zM193 12h153q128 0 207.5 100.5t79.5 233.5q0 74 -23 133t-73 107t-137 74t-207 26v-674z" />
    <glyph glyph-name="E" unicode="E" horiz-adv-x="665" 
d="M431 641q-46 27 -99.5 33.5t-171.5 5.5v-327h304v-11h-304v-330q70 -3 131 13.5t113 51.5t93.5 74.5t87.5 96.5l-126 -248h-389v693h433l64 -160z" />
    <glyph glyph-name="F" unicode="F" horiz-adv-x="630" 
d="M426 641q-46 27 -99.5 33.5t-171.5 5.5v-327h304v-11h-304v-342h-90v693h433l64 -160z" />
    <glyph glyph-name="G" unicode="G" horiz-adv-x="768" 
d="M46 343q0 71 22.5 131t61.5 100.5t91.5 70.5t113 42.5t125.5 16.5t130 -9q31 -6 61 -15t58.5 -19.5t33.5 -12.5l5 -174q-29 83 -85.5 136.5t-122 71.5t-135 4.5t-125.5 -55t-92 -117t-36 -171.5q0 -145 69 -239t189 -98q84 1 170 91l1 240l-289 7v6l380 5v-354
q-10 46 -38.5 71t-53.5 6q-81 -88 -170 -90q-158 3 -261 105.5t-103 249.5z" />
    <glyph glyph-name="H" unicode="H" horiz-adv-x="587" 
d="M13 0q9 393 0 693h89v-338h381v338h91q-16 -340 0 -693h-91v344h-381v-344h-89z" />
    <glyph glyph-name="I" unicode="I" horiz-adv-x="194" 
d="M49 0l5 103q10 278 0 487l-5 103h96l-6 -103q-6 -247 0 -487l6 -103h-96z" />
    <glyph glyph-name="J" unicode="J" horiz-adv-x="601" 
d="M45 51l-10 183q24 -43 41 -70.5t41 -61.5t44 -53t45 -33t50 -14q35 0 61.5 11t43.5 34.5t28 51.5t16 71t7 81.5t2 93.5v327l-240 18v3h338l-3 -24v-324q0 -166 -66.5 -260.5t-178.5 -94.5q-96 -3 -219 61z" />
    <glyph glyph-name="K" unicode="K" horiz-adv-x="704" 
d="M83 0q3 103 3 218.5t-1.5 256.5t-1.5 218h94v-278l474 278l23 1l-495 -290l453 -404h-119l-336 312v-312h-94z" />
    <glyph glyph-name="L" unicode="L" horiz-adv-x="532" 
d="M76 0v693h90v-685q40 -1 75.5 2.5t63 9.5t53.5 19.5t44.5 25t38.5 33.5t33.5 38.5t32 46t30 49.5t31.5 56.5t34 59.5l-146 -348h-380z" />
    <glyph glyph-name="M" unicode="M" horiz-adv-x="936" 
d="M7 692v1h129l364 -409l290 409h91v-693h-89v679l-339 -473l-343 379l-3 -585h-7v579q0 22 -32 56.5t-61 56.5z" />
    <glyph glyph-name="N" unicode="N" horiz-adv-x="766" 
d="M720 -15h-2q-39 53 -119 144t-96 110l-361 351v-493q14 -37 120 -97h-132v597q-11 18 -52 54t-46 41v1h150l532 -533l5 533h10z" />
    <glyph glyph-name="O" unicode="O" horiz-adv-x="811" 
d="M779 377q16 -149 -80.5 -261.5t-247.5 -124.5q-152 -11 -269.5 85t-133.5 245q-15 148 82 261t248 125q151 11 268.5 -85.5t132.5 -244.5zM713 377q14 134 -69 225.5t-188 82.5q-117 -9 -219.5 -113t-117.5 -240q-10 -89 22 -164.5t90.5 -114.5t125.5 -34
q121 9 230.5 115.5t125.5 242.5z" />
    <glyph glyph-name="P" unicode="P" horiz-adv-x="666" 
d="M337 693q124 0 209 -58.5t85 -146.5q0 -70 -43.5 -123t-103.5 -77t-122 -25h-198v-181q0 -21 9 -37.5t16.5 -23t26.5 -21.5h-143q3 24 3 25q2 389 0 649l-58 19h319zM352 273q79 2 127.5 60t48.5 152q0 192 -253 192h-111v-404h188z" />
    <glyph glyph-name="Q" unicode="Q" horiz-adv-x="833" 
d="M779 377q10 -97 -30.5 -182.5t-117.5 -139.5q47 -30 93 -69h-20q-36 29 -85 61q-75 -49 -168 -56q-152 -11 -269.5 85t-133.5 245q-15 148 82 261t248 125q151 11 268.5 -85.5t132.5 -244.5zM456 685q-116 -9 -217 -110.5t-119 -235.5q1 -41 22 -67.5t64 -44t90.5 -31
t119.5 -38.5t134 -57q65 52 109.5 124.5t53.5 151.5q14 134 -69 225.5t-188 82.5zM357 19q92 8 182 74q-67 34 -149 61.5t-131.5 41t-90 38t-51.5 60.5q-1 -122 71.5 -202.5t168.5 -72.5z" />
    <glyph glyph-name="R" unicode="R" horiz-adv-x="735" 
d="M597 0q-12 25 -44 45.5t-70 34.5t-80.5 36.5t-77 49t-57 74t-22.5 109.5v18h104q39 0 66.5 5.5t54 20t40 45t13.5 76.5q0 87 -50.5 128t-124.5 41h-184v-683h-91v693h297q105 0 179 -51t74 -125q0 -42 -21.5 -73.5t-57.5 -49t-75.5 -26.5t-82.5 -9h-132q0 -73 60 -117
t176 -68q156 -40 168 -174h-62z" />
    <glyph glyph-name="S" unicode="S" horiz-adv-x="625" 
d="M343 -14q-26 0 -48.5 0.5t-44.5 4t-35.5 5.5t-34.5 8.5t-29 8.5t-31.5 10.5t-29.5 10.5l-32 268h6q17 -170 87.5 -238.5t191.5 -66.5q50 1 86.5 14t54.5 34t26 41t8 40q0 37 -26 66.5t-68 50.5t-92.5 40t-101.5 40t-93.5 46t-69 63t-27.5 86q0 19 5 40t22 47t43.5 46.5
t74 35.5t109.5 17q60 2 125.5 -2.5t101.5 -9.5l36 -6l28 -233h-5q-12 126 -109 188q-53 35 -121 47t-125.5 2.5t-96 -41t-37.5 -77.5q2 -55 53 -92.5t122 -61.5t142 -50t121.5 -74t51.5 -118q1 -95 -66 -141.5t-172 -48.5z" />
    <glyph glyph-name="T" unicode="T" horiz-adv-x="710" 
d="M29 459l42 234h569l43 -234l-4 -1q-17 54 -42.5 101.5t-67.5 86t-89 38.5h-81v-640q1 -28 20 -44h-128q18 7 20 43v641h-79q-47 0 -89.5 -38.5t-67.5 -85.5t-42 -101h-4z" />
    <glyph glyph-name="U" unicode="U" horiz-adv-x="678" 
d="M22 352v341h101v-322q2 -182 56 -271.5t169 -89.5q139 0 213.5 101.5t74.5 259.5v322h19v-322q0 -75 -18.5 -141.5t-54.5 -120.5t-96.5 -86t-137.5 -32q-63 0 -119.5 20.5t-103.5 62t-75 113t-28 165.5z" />
    <glyph glyph-name="V" unicode="V" horiz-adv-x="681" 
d="M-31 693h111l323 -598l299 598h10l-348 -707z" />
    <glyph glyph-name="W" unicode="W" horiz-adv-x="981" 
d="M1012 693l-348 -707l-159 285l-141 -285l-395 707h111l323 -598l95 189l-229 409h111l167 -310l155 310h10l-158 -322l149 -276l299 598h10z" />
    <glyph glyph-name="X" unicode="X" horiz-adv-x="677" 
d="M715 0h-123l-280 323l-308 -323h-15l316 332l-313 361h123l254 -294l280 294h15l-288 -302z" />
    <glyph glyph-name="Y" unicode="Y" horiz-adv-x="737" 
d="M330 0l4 23l-1 289l-377 381h117l350 -360l316 360h19l-326 -372v-298l3 -23h-105z" />
    <glyph glyph-name="Z" unicode="Z" horiz-adv-x="732" 
d="M-16 445l86 248h642l-706 -682l256 1q69 0 124 15t94.5 38t77.5 66.5t65.5 86t65.5 110.5l-106 -328h-599l548 682l-31 1q-71 2 -128.5 -2t-98.5 -10.5t-76.5 -22t-57 -28t-45.5 -37t-37 -41t-36 -48t-38 -49.5z" />
    <glyph glyph-name="backslash" unicode="\" horiz-adv-x="503" 
d="M463 -56l-17 -8l-406 815l16 8z" />
    <glyph glyph-name="underscore" unicode="_" horiz-adv-x="451" 
d="M406 14v-14h-361v14h361z" />
    <glyph glyph-name="a" unicode="a" horiz-adv-x="580" 
d="M58 392l82 101q44 18 97 19t101 -14.5t88 -41.5t64 -64.5t24 -80.5q0 -10 -1.5 -60.5t-0.5 -84.5v-14q0 -68 19.5 -107t50.5 -45q-136 0 -143 138v28l2 84l-1 -3q-69 -153 -162 -218q-52 -37 -106 -37q-89 0 -127 58q-37 55 -1 118q48 84 194 114q3 1 7.5 2l18 4t27 6.5
t32 9t34 10.5t32 11.5t27.5 12.5t18.5 13t7.5 13q2 87 -62.5 105.5t-173.5 -22.5zM113 117q26 -49 68 -58t85.5 15.5t83 63.5t65 87t26.5 85l1 37l-3 -3q-3 -2 -14.5 -9t-30 -15.5t-56 -19.5t-85.5 -22l-11 -2q-12 -3 -21.5 -6t-26 -8.5t-29 -12.5t-26.5 -16t-22.5 -21
t-13.5 -25.5t-2.5 -31.5t12.5 -38z" />
    <glyph glyph-name="b" unicode="b" horiz-adv-x="620" 
d="M156 449q50 38 105 55t103.5 13t93 -22t76 -51.5t50 -73t17 -88.5t-24.5 -97q-4 -8 -12.5 -21.5t-36.5 -48t-58.5 -60.5t-76.5 -47.5t-93 -21.5q-6 0 -16.5 0.5t-37 6t-47 14.5t-37 28.5t-16.5 46.5q0 25 -37 -37l-33 -59v516q0 43 3.5 76.5t16 82t42.5 96t76 89.5
q-19 -27 -31.5 -59.5t-17 -64t-7 -66.5t-1.5 -67t0 -65v-75zM299 -4q122 0 175 109q45 94 20 211q-25 114 -100 162q-102 64 -238 -40l-5 -347q0 -46 44 -70.5t104 -24.5z" />
    <glyph glyph-name="c" unicode="c" horiz-adv-x="540" 
d="M465 377q-49 41 -108.5 68t-120 30.5t-95.5 -40.5q-28 -29 -39.5 -72.5t-7 -89.5t25 -92t52.5 -82.5t80.5 -59t104.5 -22.5q48 0 109.5 38t95.5 99h2l-2.5 -7.5t-9 -18.5t-18 -27t-29.5 -30t-43 -31q-86 -54 -194 -54q-54 0 -100 21t-75 55t-48.5 77.5t-18.5 88t14 86.5
q2 6 6.5 16.5t22 38.5t39.5 52t61 48.5t84 36.5q143 30 262 -39z" />
    <glyph glyph-name="d" unicode="d" horiz-adv-x="607" 
d="M36 317q12 36 35.5 71t62 66.5t84.5 48.5t108 10t127 -43l3 263l78 73v-654q0 -139 60 -152q-69 0 -103.5 29t-39.5 71q-79 -111 -201 -111q-50 0 -93.5 21t-70.5 55t-45 77.5t-17.5 88t12.5 86.5zM104 408q-35 -40 -35 -105t28.5 -124.5t87 -103t129.5 -43.5
q82 0 136 74v8l3 265q-42 48 -107 74t-133 16.5t-109 -61.5z" />
    <glyph glyph-name="e" unicode="e" horiz-adv-x="572" 
d="M550 154h3q-2 -7 -7.5 -19.5t-31 -42.5t-62.5 -52q-84 -54 -184 -54q-54 0 -100.5 21t-76 55t-49.5 77.5t-19.5 88t13.5 86.5q2 6 7 16.5t23 38.5t40.5 52t62 48.5t84.5 36.5q75 17 165 -4q25 -6 44 -16.5t27.5 -20t13.5 -21t6 -16.5t1 -10q0 -69 -115 -72h-290
q-6 -41 -4.5 -84t20 -85.5t46 -76t75 -54t107.5 -20.5q49 0 108.5 34t92.5 94zM143 426q-28 -31 -37 -74l273 8q32 1 40 21t-5 44.5t-35 38.5q-57 33 -128.5 19t-107.5 -57z" />
    <glyph glyph-name="f" unicode="f" horiz-adv-x="486" 
d="M33 441l50 59q0 147 142 223q97 52 205 48q73 -2 80 -30q1 -2 1 -4q0 -17 -17.5 -25.5t-50 -10t-63.5 0t-74.5 5t-65.5 3.5q-16 0 -29 -7t-21 -18.5t-13.5 -28t-8 -32t-3.5 -34t-1 -30.5t0.5 -24t0.5 -13l1 -24v1h175l-50 -59h-124v-393q3 -37 37 -48h-138q17 13 17 30
v411h-50z" />
    <glyph glyph-name="g" unicode="g" horiz-adv-x="662" 
d="M305 -276q-214 0 -255.5 60t108.5 177q-49 12 -73 33l184 101q-83 18 -139.5 73.5t-61.5 123.5q-3 52 34 101.5t100 79.5t129 29q83 -2 331 -2l-177 -57q74 -54 84 -133q9 -65 -40 -120t-118.5 -80t-125.5 -16l-126 -70q23 -8 82.5 -11t121 -6.5t122.5 -12t99.5 -32.5
t38.5 -63q0 -47 -33 -82.5t-84 -54.5t-102.5 -28.5t-98.5 -9.5zM331 108q73 0 115 54t29 137q-30 189 -175 189q-73 0 -110.5 -49t-31.5 -140q10 -87 56.5 -139t116.5 -52zM549 -190q34 20 48.5 34t14.5 32q0 30 -67 45.5t-155 18.5q-147 4 -219 18q-88 -55 -44 -112
q40 -50 151 -71q138 -25 246 23q13 5 25 12z" />
    <glyph glyph-name="h" unicode="h" horiz-adv-x="586" 
d="M434 0q20 6 20 23v314q0 53 -20.5 91t-55.5 51t-76 6.5t-86.5 -44.5t-83.5 -100l-2 -318q0 -12 20 -23h-119q19 11 20 23v479q0 59 6 104.5t39 115t94 124.5q-16 -23 -27.5 -51t-17.5 -49t-9 -59t-3.5 -52t0 -59t0.5 -52v-28l-1 -142q40 68 95 108.5t107.5 47t98.5 -8.5
t74 -57t28 -99v-322q0 -14 20 -23h-121z" />
    <glyph glyph-name="i" unicode="i" horiz-adv-x="254" 
d="M78 648q0 22 15 37.5t37 15.5t37.5 -15.5t15.5 -37.5t-15.5 -37t-37.5 -15t-37 15t-15 37zM169 500q-15 -225 1 -495h-84q13 261 1 495h82z" />
    <glyph glyph-name="j" unicode="j" horiz-adv-x="366" 
d="M221 648q0 22 15 37.5t37 15.5t37.5 -15.5t15.5 -37.5t-15.5 -37t-37.5 -15t-37 15t-15 37zM316 148q0 -167 -29.5 -238.5t-83.5 -95.5q-28 -13 -44.5 -20t-51 -20.5t-56 -18.5t-45.5 -8t-36 4.5t-12 24.5q0 23 10.5 34.5t32 12t44 -3t56 -8t58.5 -4.5q22 -1 37 16.5
t23 53t11.5 78.5t3.5 101l-1 391l-1 53h84v-352z" />
    <glyph glyph-name="k" unicode="k" horiz-adv-x="704" 
d="M517 426l-33 -2q-33 -1 -54.5 -5t-57 -12t-68.5 -26t-61 -43q42 24 83.5 10t72 -48.5t64.5 -83t62 -93.5t64 -80t70 -43q-90 0 -152.5 37t-118.5 140q-21 39 -31.5 57t-28.5 43t-30.5 32.5t-30.5 11.5t-37.5 -6.5t-42.5 -32.5v-222l4 -60h-90l4 60v442q0 59 6 104.5
t39 115t94 124.5q-16 -23 -27.5 -51t-17.5 -49t-9 -59t-3.5 -52t0 -59t0.5 -52v-236q31 27 75 74t70 72t72 45.5t102 20.5q35 2 65 -4z" />
    <glyph glyph-name="l" unicode="l" horiz-adv-x="190" 
d="M135 97q3 -84 63 -97q-78 0 -111 22.5t-33 86.5l-1 387v6q0 44 3.5 77t15.5 81.5t42 96t76 89.5q-12 -17 -22 -37.5t-16 -37t-10.5 -42t-7 -39.5t-3.5 -43.5t-1 -40v-43v-39.5v-28q-3 -211 5 -399z" />
    <glyph glyph-name="m" unicode="m" horiz-adv-x="1011" 
d="M863 0q20 6 20 23v314q0 38 -10.5 68.5t-29.5 49t-43.5 28t-54 5t-60 -20t-62 -47.5t-58.5 -76v-321q0 -14 20 -23h-121q20 6 20 23v314q0 53 -21.5 91t-57.5 51t-78 6.5t-88.5 -44.5t-84.5 -100l-2 -318q0 -12 20 -23h-121q19 11 20 23v477h84l-1 -146q39 66 93.5 106.5
t107 48t99.5 -5.5t77.5 -52t33.5 -94q33 56 77.5 93t88 51t86 10t75 -24t52.5 -57t20 -85v-322q0 -14 20 -23h-121z" />
    <glyph glyph-name="n" unicode="n" horiz-adv-x="673" 
d="M81 0h121q-20 11 -20 23l2 317q38 62 83.5 100t86 45t75 -6t55 -51t20.5 -91v-314l-20 -23h121l-20 23v322q0 57 -28 99t-73.5 57t-98 8.5t-107 -47t-94.5 -108.5l1 146h-84v-477q-1 -12 -20 -23z" />
    <glyph glyph-name="o" unicode="o" horiz-adv-x="608" 
d="M410 487q97 -45 141 -154t0 -205q-28 -64 -89 -103t-129 -42t-135 24q-98 46 -143 151t-1 202q43 96 152 134.5t204 -7.5zM185 29q33 -16 72 -15.5t78 15.5t76 48.5t64 82.5q57 108 39.5 191t-88.5 116q-34 16 -72.5 17.5t-78 -12t-77.5 -50.5t-66 -93
q-50 -112 -33.5 -189.5t86.5 -110.5z" />
    <glyph glyph-name="p" unicode="p" horiz-adv-x="605" 
d="M147 438l3 -347q0 -46 41.5 -70.5t96.5 -24.5q111 0 165 107q48 95 28 212q-20 116 -93 164q-98 63 -241 -41zM67 -292v727l-53 -39l133 131v-78q48 38 100 55t97.5 12.5t87 -22.5t71 -51t46.5 -72.5t15.5 -88.5t-22.5 -97q-4 -8 -11.5 -21.5t-33.5 -48t-53.5 -60.5
t-70 -47.5t-85.5 -21.5q-5 0 -13 0.5t-29.5 4t-38.5 10t-34.5 21t-23.5 33.5v-277z" />
    <glyph glyph-name="q" unicode="q" horiz-adv-x="666" 
d="M556 514h2v-734l-79 -72l-2 373q-69 -92 -191 -92q-61 0 -112 32t-78.5 80.5t-38.5 106.5t9 109q12 36 37 71.5t66 66t89 45t112 3.5t131 -52zM348 31q80 0 129 75l-1 284q-42 47 -95.5 74t-111 20.5t-95.5 -56.5q-35 -40 -39.5 -108t17.5 -132t74.5 -110.5t121.5 -46.5z
" />
    <glyph glyph-name="r" unicode="r" horiz-adv-x="397" 
d="M381 434l-22 -1q-53 -2 -90 -14t-54 -30t-24 -32t-8 -28v-279q0 -17 8.5 -28t14 -13.5t20.5 -8.5h-139q13 31 13 50l1 326v124h82v-150q3 41 62 95.5t140 54.5q17 1 38 0z" />
    <glyph glyph-name="s" unicode="s" horiz-adv-x="413" 
d="M76 207q0 -131 89 -186q64 -40 133 -19q62 19 75 72q3 12 3 25q-1 31 -38.5 54.5t-90.5 41.5t-106.5 37t-92.5 50.5t-42 73.5q-10 112 110.5 146.5t286.5 -25.5v-150h-6q-5 34 -19.5 64.5t-41.5 57.5t-73 40.5t-106 7.5q-20 -3 -34.5 -6.5t-34 -12t-29 -24.5t-7.5 -39
q3 -36 41.5 -60.5t92.5 -40t108 -32.5t93 -48t42 -76q3 -38 -13.5 -71.5t-33.5 -49.5q-49 -45 -119 -49.5t-159 13.5q-21 2 -32 4l-2 204z" />
    <glyph glyph-name="t" unicode="t" horiz-adv-x="485" 
d="M468 174q-47 -103 -146 -153q-91 -47 -161 -18t-70 124v315h-65l146 179v-121h207l-50 -58h-157l-3 -339q0 -81 64 -90q63 -9 140 50q63 47 93 113z" />
    <glyph glyph-name="u" unicode="u" horiz-adv-x="604" 
d="M12 500l1 -311q0 -42 17 -80.5t45.5 -64.5t64 -43t76 -14t78.5 21t73.5 63t59.5 111q-1 -106 28 -144.5t115 -38.5q-60 13 -60 153v348h-81l-2 -299q-23 -62 -53.5 -105t-62 -60.5t-63.5 -21t-60 11t-50 38.5t-34 59t-11 74l7 303h-88z" />
    <glyph glyph-name="v" unicode="v" horiz-adv-x="576" 
d="M13 499h98l227 -416l203 416h12l-253 -513z" />
    <glyph glyph-name="w" unicode="w" horiz-adv-x="786" 
d="M779 499l-253 -513l-120 215l-106 -215l-287 513h98l227 -416l62 128l-161 288h98l108 -197l96 197h12l-103 -208l114 -208l203 416h12z" />
    <glyph glyph-name="x" unicode="x" horiz-adv-x="531" 
d="M550 0h-124l-207 219l-222 -219h-15l230 227l-257 273h124l197 -209l212 209h16l-220 -217z" />
    <glyph glyph-name="y" unicode="y" horiz-adv-x="547" 
d="M537 500q-38 -81 -100 -216q-154 -332 -210 -401.5t-183 -63.5l1 108q4 -1 10.5 -3t26 -6t39 -5.5t45.5 1.5t48 11.5t44 27.5t37 47l-272 500h98l220 -395l184 395h12z" />
    <glyph glyph-name="z" unicode="z" horiz-adv-x="662" 
d="M58 247l78 253h493l-560 -492l181 -1q263 2 361 323h1l-93 -330h-469l426 495h-50h-46.5t-44.5 -2t-46.5 -6.5t-43 -12.5t-43.5 -20t-39 -31t-39 -43.5t-33 -58t-31 -74.5h-2z" />
    <glyph glyph-name="bar" unicode="|" horiz-adv-x="138" 
d="M60 0v700h18v-700h-18z" />
    <glyph glyph-name="exclamdown" unicode="&#xa1;" horiz-adv-x="202" 
d="M46 442q0 23 16.5 39.5t39.5 16.5q21 0 37.5 -16.5t16.5 -39.5q0 -21 -16.5 -37.5t-37.5 -16.5q-23 0 -39.5 16.5t-16.5 37.5zM47 -151l54 443q18 -113 33.5 -262t15.5 -181q0 -25 -13.5 -43.5t-35.5 -18.5q-23 0 -38.5 18.5t-15.5 43.5z" />
    <glyph glyph-name="cent" unicode="&#xa2;" horiz-adv-x="600" 
d="M495 244h2q-2 -7 -6 -19.5t-24.5 -42.5t-50.5 -52q-64 -51 -139 -54v-153h-10v153q-66 0 -119.5 32t-81 80.5t-37 106.5t12.5 109q2 6 6.5 16.5t22 38.5t39.5 52t61 48.5t84 36.5l12 3v147h10v-145q92 19 196 -44v-100q-38 34 -91.5 61.5t-104.5 36.5v-438q29 -8 56 -8
q39 0 87 37t75 98zM138 521q-33 -36 -40 -96.5t10 -120.5t59.5 -112t99.5 -72v437q-89 14 -129 -36z" />
    <glyph glyph-name="sterling" unicode="&#xa3;" horiz-adv-x="553" 
d="M104 12h424v-12h-498l1 75q81 21 117 93t-10 159l-15 23h-112v8h107q-59 99 -60 160q0 18 5.5 39.5t21 47t39 46t63 35.5t89.5 18q35 2 95 -2.5t103 -9.5l43 -6l3 -234l-6 1q-5 119 -60.5 180t-177.5 61q-55 0 -103 -29t-47 -89q0 -11 2 -23t4.5 -21.5t7.5 -23t8 -22
t10.5 -23t11 -21t12.5 -22.5t12 -20.5t13 -21.5t12 -20h185v-8h-180q1 -2 13 -23q41 -81 3 -169t-136 -146z" />
    <glyph glyph-name="yen" unicode="&#xa5;" horiz-adv-x="737" 
d="M432 321v-36h175v-13h-175v-67h175v-13h-175v-169l3 -23h-105l4 23l-1 169h-171v13h171v67h-171v13h171v27l-377 381h117l350 -360l316 360h19z" />
    <glyph glyph-name="section" unicode="&#xa7;" horiz-adv-x="482" 
d="M75 347q-2 38 19 80t73 59q-74 44 -78 120q-1 27 7.5 56t40.5 58t84 33q23 2 62.5 -1t66.5 -6l28 -4l5 -180h-4q-4 92 -41.5 139.5t-116.5 43.5q-36 -2 -65.5 -24t-28.5 -68q1 -32 14 -59t31 -42.5t36 -27t30 -15.5l13 -4q153 -49 156 -156q3 -110 -91 -140
q74 -45 77 -119q3 -73 -39.5 -110t-108.5 -40q-63 -3 -153 33l-10 208h5q11 -124 59 -178t99 -52q94 3 94 93q0 34 -10.5 59.5t-34.5 44.5t-36.5 26t-43.5 22q-4 2 -21 10t-23 11t-21.5 12t-22.5 15.5t-18.5 18t-17 23t-10 27.5t-5.5 34zM111 394q1 -36 17.5 -64.5t42.5 -47
t49 -30.5t49.5 -21.5t32.5 -13.5q52 21 52 86q0 35 -12 62t-34.5 45t-42.5 29t-48.5 23.5t-39.5 18.5q-68 -26 -66 -87z" />
    <glyph glyph-name="copyright" unicode="&#xa9;" horiz-adv-x="767" 
d="M50 351q0 -139 97 -236q98 -98 236 -98q137 0 237 98q97 97 97 236t-97 236q-100 98 -237 98q-138 0 -236 -98q-97 -97 -97 -236zM56 351q0 136 96 232q97 95 231 95q135 0 232 -95q96 -96 96 -232q0 -137 -96 -231q-96 -96 -232 -96q-135 0 -231 96q-96 94 -96 231z
M228 348q0 -93 46.5 -155.5t118.5 -62.5q91 0 174 102q5 10 10 15l-1 -18q-14 -16 -23 -25q-81 -81 -162 -81q-95 1 -160 66.5t-65 158.5q0 59 26 108.5t73 80.5q54 40 128 40q36 0 69 -8q19 -4 83 -30l3 -111q-12 39 -29 67t-50 48q-60 40 -143 9q-47 -23 -72.5 -81
t-25.5 -123z" />
    <glyph glyph-name="registered" unicode="&#xae;" horiz-adv-x="548" 
d="M254 304q85 0 144.5 60t59.5 144q0 85 -59.5 144.5t-144.5 59.5q-84 0 -144 -59.5t-60 -144.5q0 -84 60 -144t144 -60zM254 706q82 0 140 -58t58 -140t-58 -139.5t-140 -57.5t-139.5 57.5t-57.5 139.5t57.5 140t139.5 58zM351 386q-6 12 -27.5 23t-42.5 19.5t-38 30.5
t-17 56v8h33q31 0 48 10t17 43q0 59 -65 59h-64v-249h-31v256h103q39 0 66.5 -19t27.5 -46q0 -23 -28.5 -42.5t-58.5 -20.5h-39q0 -27 17.5 -41.5t59.5 -22.5q57 -15 62 -64h-23z" />
    <glyph glyph-name="degree" unicode="&#xb0;" horiz-adv-x="219" 
d="M109 541q33 0 56.5 23.5t23.5 56.5t-23.5 56t-56.5 23t-56 -23t-23 -56t23 -56.5t56 -23.5zM109 679q24 0 41.5 -17t17.5 -41t-17.5 -41.5t-41.5 -17.5t-41 17.5t-17 41.5t17 41t41 17z" />
    <glyph glyph-name="plusminus" unicode="&#xb1;" horiz-adv-x="572" 
d="M276 644h18v-249h248v-18h-248v-243h-18v243h-244v18h244v249zM540 74v-18h-510v18h510z" />
    <glyph glyph-name="paragraph" unicode="&#xb6;" horiz-adv-x="600" 
d="M64 488q0 -70 43.5 -123.5t103.5 -78.5t122 -25h100v-351h5v783h-80q-124 0 -209 -58.5t-85 -146.5zM483 -90h5v783h-5v-783zM217 485q0 90 53.5 146.5t159.5 56.5h3v-422h-50q-66 0 -116 63.5t-50 155.5z" />
    <glyph glyph-name="periodcentered" unicode="&#xb7;" horiz-adv-x="170" 
d="M86 300q-23 0 -39.5 16.5t-16.5 39.5q0 21 16.5 37.5t39.5 16.5q21 0 37.5 -16.5t16.5 -37.5q0 -23 -16.5 -39.5t-37.5 -16.5z" />
    <glyph glyph-name="questiondown" unicode="&#xbf;" horiz-adv-x="600" 
d="M353 605q21 0 36.5 -15.5t15.5 -36.5q0 -20 -15.5 -35.5t-36.5 -15.5q-20 0 -35.5 15.5t-15.5 35.5q0 21 15.5 36.5t35.5 15.5zM401 438q9 -14 11.5 -33.5t-2.5 -47.5t-34 -61t-80 -63q-6 -3 -16.5 -9t-37 -26.5t-47 -44t-37 -62t-17.5 -79.5q-1 -54 40 -80t90 -28
q106 0 155 56t52 165l6 1l-3 -215q-16 -2 -41.5 -5.5t-82 -8t-86.5 -2.5q-53 3 -93.5 22.5t-60.5 47.5t-29 54t-8 47q1 33 11.5 61t34.5 51.5t40.5 37t51.5 36t45 29.5q32 21 52.5 37t47 49t38.5 71z" />
    <glyph glyph-name="Agrave" unicode="&#xc0;" horiz-adv-x="751" 
d="M366 750h-75l-184 127zM159 257l-45 -93q-8 -21 -13 -38.5t-8 -30.5t-0.5 -24t3.5 -18.5t10 -14.5t13 -10.5t18 -8.5t20 -6.5l24 -6t25 -6.5h-184l298 623q-8 16 -28.5 29.5t-47 25.5t-31.5 15h172l359 -693h-109l-130 257h-346zM500 268l-172 341l-164 -341h336z" />
    <glyph glyph-name="Aacute" unicode="&#xc1;" horiz-adv-x="751" 
d="M536 877l-184 -127h-75zM159 257l-45 -93q-8 -21 -13 -38.5t-8 -30.5t-0.5 -24t3.5 -18.5t10 -14.5t13 -10.5t18 -8.5t20 -6.5l24 -6t25 -6.5h-184l298 623q-8 16 -28.5 29.5t-47 25.5t-31.5 15h172l359 -693h-109l-130 257h-346zM500 268l-172 341l-164 -341h336z" />
    <glyph glyph-name="Acircumflex" unicode="&#xc2;" horiz-adv-x="751" 
d="M538 740l-180 94l-178 -94l178 137zM159 257l-45 -93q-8 -21 -13 -38.5t-8 -30.5t-0.5 -24t3.5 -18.5t10 -14.5t13 -10.5t18 -8.5t20 -6.5l24 -6t25 -6.5h-184l298 623q-8 16 -28.5 29.5t-47 25.5t-31.5 15h172l359 -693h-109l-130 257h-346zM500 268l-172 341l-164 -341
h336z" />
    <glyph glyph-name="Atilde" unicode="&#xc3;" horiz-adv-x="751" 
d="M391 799q-30 19 -61 23t-54 -4t-41.5 -19t-28.5 -21l-9 -9q4 6 10.5 15t28.5 29.5t45.5 31.5t60.5 9t74 -26q3 -2 8.5 -5t22 -8t33 -4.5t40 10.5t44.5 32q-3 -5 -8 -13t-22 -25t-36 -27t-48 -9t-59 20zM159 257l-45 -93q-8 -21 -13 -38.5t-8 -30.5t-0.5 -24t3.5 -18.5
t10 -14.5t13 -10.5t18 -8.5t20 -6.5l24 -6t25 -6.5h-184l298 623q-8 16 -28.5 29.5t-47 25.5t-31.5 15h172l359 -693h-109l-130 257h-346zM500 268l-172 341l-164 -341h336z" />
    <glyph glyph-name="Adieresis" unicode="&#xc4;" horiz-adv-x="751" 
d="M222 734q-21 0 -36.5 15.5t-15.5 36.5q0 20 15.5 35.5t36.5 15.5q20 0 35.5 -15.5t15.5 -35.5q0 -21 -15.5 -36.5t-35.5 -15.5zM472 734q-21 0 -36.5 15.5t-15.5 36.5q0 20 15.5 35.5t36.5 15.5q20 0 35.5 -15.5t15.5 -35.5q0 -21 -15.5 -36.5t-35.5 -15.5zM159 257
l-45 -93q-8 -21 -13 -38.5t-8 -30.5t-0.5 -24t3.5 -18.5t10 -14.5t13 -10.5t18 -8.5t20 -6.5l24 -6t25 -6.5h-184l298 623q-8 16 -28.5 29.5t-47 25.5t-31.5 15h172l359 -693h-109l-130 257h-346zM500 268l-172 341l-164 -341h336z" />
    <glyph glyph-name="Aring" unicode="&#xc5;" horiz-adv-x="751" 
d="M350 739q-33 0 -56 23.5t-23 56.5t23 56t56 23t56.5 -23t23.5 -56t-23.5 -56.5t-56.5 -23.5zM350 877q-24 0 -41 -17t-17 -41t17 -41.5t41 -17.5t41.5 17.5t17.5 41.5t-17.5 41t-41.5 17zM159 257l-45 -93q-8 -21 -13 -38.5t-8 -30.5t-0.5 -24t3.5 -18.5t10 -14.5
t13 -10.5t18 -8.5t20 -6.5l24 -6t25 -6.5h-184l298 623q-8 16 -28.5 29.5t-47 25.5t-31.5 15h172l359 -693h-109l-130 257h-346zM500 268l-172 341l-164 -341h336z" />
    <glyph glyph-name="AE" unicode="&#xc6;" horiz-adv-x="1107" 
d="M35 0q86 76 121 124l337 491q-8 21 -22 34t-32.5 24t-27.5 20h575l85 -247q-15 16 -34 46.5t-33.5 53.5t-47 50.5t-74.5 45t-116 28t-171 8.5v-323h269v-15h-269v-331q69 1 128.5 16t98.5 35t76.5 51.5t57 55.5t45.5 56.5t39 46.5l-137 -270h-395v340h-186l-46 -67
l-47 -71q-15 -23 -27 -42t-19.5 -34.5t-12.5 -26.5t-6.5 -22.5t-3 -17.5t1.5 -16t4.5 -13.5t6.5 -14.5t7 -15h-145zM333 355h175l-1 252z" />
    <glyph glyph-name="Ccedilla" unicode="&#xc7;" horiz-adv-x="782" 
d="M412 10q103 0 179.5 38.5t172.5 134.5l-14 -27q-26 -28 -56.5 -53.5t-74 -53.5t-97.5 -44.5t-110 -16.5h-3l-32 -44q30 8 63.5 7.5t59.5 -20.5t26 -54q0 -42 -38.5 -62.5t-85.5 -11.5q-36 7 -51 11v37q2 -1 12 -11.5t21.5 -19t23.5 -12.5q33 -9 57.5 9.5t24.5 59.5
q0 48 -40.5 60.5t-93.5 -16.5l3 8l21 60q-152 12 -256 114t-104 240q0 74 30 140t80.5 111t117.5 76t141.5 36t151.5 -10q32 -6 61.5 -15t59 -20t32.5 -12l4 -174q-40 82 -99.5 134.5t-121.5 70.5t-124.5 7.5t-111 -48t-79 -104.5t-30.5 -152q0 -97 35 -182t100.5 -138
t144.5 -53z" />
    <glyph glyph-name="Egrave" unicode="&#xc8;" horiz-adv-x="727" 
d="M291 750l-184 127l259 -127h-75zM431 641q-46 27 -99.5 33.5t-171.5 5.5v-327h304v-11h-304v-330q70 -3 131 13.5t113 51.5t93.5 74.5t87.5 96.5l-126 -248h-389v693h433l64 -160z" />
    <glyph glyph-name="Eacute" unicode="&#xc9;" horiz-adv-x="727" 
d="M292 750h-75l259 127zM431 641q-46 27 -99.5 33.5t-171.5 5.5v-327h304v-11h-304v-330q70 -3 131 13.5t113 51.5t93.5 74.5t87.5 96.5l-126 -248h-389v693h433l64 -160z" />
    <glyph glyph-name="Ecircumflex" unicode="&#xca;" horiz-adv-x="727" 
d="M508 740l-180 94l-178 -94l178 137zM431 641q-46 27 -99.5 33.5t-171.5 5.5v-327h304v-11h-304v-330q70 -3 131 13.5t113 51.5t93.5 74.5t87.5 96.5l-126 -248h-389v693h433l64 -160z" />
    <glyph glyph-name="Edieresis" unicode="&#xcb;" horiz-adv-x="727" 
d="M202 734q-21 0 -36.5 15.5t-15.5 36.5q0 20 15.5 35.5t36.5 15.5q20 0 35.5 -15.5t15.5 -35.5q0 -21 -15.5 -36.5t-35.5 -15.5zM442 734q-21 0 -36.5 15.5t-15.5 36.5q0 20 15.5 35.5t36.5 15.5q20 0 35.5 -15.5t15.5 -35.5q0 -21 -15.5 -36.5t-35.5 -15.5zM431 641
q-46 27 -99.5 33.5t-171.5 5.5v-327h304v-11h-304v-330q70 -3 131 13.5t113 51.5t93.5 74.5t87.5 96.5l-126 -248h-389v693h433l64 -160z" />
    <glyph glyph-name="Igrave" unicode="&#xcc;" horiz-adv-x="194" 
d="M58 750l-184 127l259 -127h-75zM49 0l5 103q10 278 0 487l-5 103h96l-6 -103q-6 -247 0 -487l6 -103h-96z" />
    <glyph glyph-name="Iacute" unicode="&#xcd;" horiz-adv-x="194" 
d="M138 750h-75l259 127zM49 0l5 103q10 278 0 487l-5 103h96l-6 -103q-6 -247 0 -487l6 -103h-96z" />
    <glyph glyph-name="Icircumflex" unicode="&#xce;" horiz-adv-x="194" 
d="M278 740l-180 94l-178 -94l178 137zM49 0l5 103q10 278 0 487l-5 103h96l-6 -103q-6 -247 0 -487l6 -103h-96z" />
    <glyph glyph-name="Idieresis" unicode="&#xcf;" horiz-adv-x="253" 
d="M52 734q-21 0 -36.5 15.5t-15.5 36.5q0 20 15.5 35.5t36.5 15.5q20 0 35.5 -15.5t15.5 -35.5q0 -21 -15.5 -36.5t-35.5 -15.5zM202 734q-21 0 -36.5 15.5t-15.5 36.5q0 20 15.5 35.5t36.5 15.5q20 0 35.5 -15.5t15.5 -35.5q0 -21 -15.5 -36.5t-35.5 -15.5zM79 0l5 103
q10 278 0 487l-5 103h96l-6 -103q-6 -247 0 -487l6 -103h-96z" />
    <glyph glyph-name="Eth" unicode="&#xd0;" horiz-adv-x="766" 
d="M329 693q166 0 276.5 -100.5t110.5 -245.5t-108 -246t-272 -101h-280q6 4 19 9.5t20.5 11t7.5 15.5v304h-70v15h70v302q0 10 -24.5 21t-27.5 15h278zM336 12q124 0 200 95t76 239q0 152 -102 244t-321 92v-327h119v-15h-119v-328h147z" />
    <glyph glyph-name="Ntilde" unicode="&#xd1;" horiz-adv-x="717" 
d="M216 769q4 6 10.5 15t28.5 29.5t45.5 31.5t60.5 9t74 -26q3 -2 8.5 -5t22 -8t33 -4.5t40 10.5t44.5 32q-3 -5 -8 -13t-22 -25t-36 -27t-48 -9t-59 20t-61 23t-54 -4t-41.5 -19t-27.5 -21zM720 -15h-2q-39 53 -119 144t-96 110l-361 351v-493q14 -37 120 -97h-132v597
q-11 18 -52 54t-46 41v1h150l532 -533l5 533h10z" />
    <glyph glyph-name="Ograve" unicode="&#xd2;" horiz-adv-x="786" 
d="M382 750l-184 127l259 -127h-75zM779 377q16 -149 -80.5 -261.5t-247.5 -124.5q-152 -11 -269.5 85t-133.5 245q-15 148 82 261t248 125q151 11 268.5 -85.5t132.5 -244.5zM713 377q14 134 -69 225.5t-188 82.5q-117 -9 -219.5 -113t-117.5 -240q-10 -89 22 -164.5
t90.5 -114.5t125.5 -34q121 9 230.5 115.5t125.5 242.5z" />
    <glyph glyph-name="Oacute" unicode="&#xd3;" horiz-adv-x="786" 
d="M482 750h-75l259 127zM779 377q16 -149 -80.5 -261.5t-247.5 -124.5q-152 -11 -269.5 85t-133.5 245q-15 148 82 261t248 125q151 11 268.5 -85.5t132.5 -244.5zM713 377q14 134 -69 225.5t-188 82.5q-117 -9 -219.5 -113t-117.5 -240q-10 -89 22 -164.5t90.5 -114.5
t125.5 -34q121 9 230.5 115.5t125.5 242.5z" />
    <glyph glyph-name="Ocircumflex" unicode="&#xd4;" horiz-adv-x="786" 
d="M581 740l-180 94l-178 -94l178 137zM779 377q16 -149 -80.5 -261.5t-247.5 -124.5q-152 -11 -269.5 85t-133.5 245q-15 148 82 261t248 125q151 11 268.5 -85.5t132.5 -244.5zM713 377q14 134 -69 225.5t-188 82.5q-117 -9 -219.5 -113t-117.5 -240q-10 -89 22 -164.5
t90.5 -114.5t125.5 -34q121 9 230.5 115.5t125.5 242.5z" />
    <glyph glyph-name="Otilde" unicode="&#xd5;" horiz-adv-x="786" 
d="M219 769q4 6 10.5 15t28.5 29.5t45.5 31.5t60.5 9t74 -26q3 -2 8.5 -5t22 -8t33 -4.5t40 10.5t44.5 32q-3 -5 -8 -13t-22 -25t-36 -27t-48 -9t-59 20t-61 23t-54 -4t-41.5 -19t-28.5 -21zM779 377q16 -149 -80.5 -261.5t-247.5 -124.5q-152 -11 -269.5 85t-133.5 245
q-15 148 82 261t248 125q151 11 268.5 -85.5t132.5 -244.5zM713 377q14 134 -69 225.5t-188 82.5q-117 -9 -219.5 -113t-117.5 -240q-10 -89 22 -164.5t90.5 -114.5t125.5 -34q121 9 230.5 115.5t125.5 242.5z" />
    <glyph glyph-name="Odieresis" unicode="&#xd6;" horiz-adv-x="786" 
d="M283 734q-21 0 -36.5 15.5t-15.5 36.5q0 20 15.5 35.5t36.5 15.5q20 0 35.5 -15.5t15.5 -35.5q0 -21 -15.5 -36.5t-35.5 -15.5zM533 734q-21 0 -36.5 15.5t-15.5 36.5q0 20 15.5 35.5t36.5 15.5q20 0 35.5 -15.5t15.5 -35.5q0 -21 -15.5 -36.5t-35.5 -15.5zM779 377
q16 -149 -80.5 -261.5t-247.5 -124.5q-152 -11 -269.5 85t-133.5 245q-15 148 82 261t248 125q151 11 268.5 -85.5t132.5 -244.5zM713 377q14 134 -69 225.5t-188 82.5q-117 -9 -219.5 -113t-117.5 -240q-10 -89 22 -164.5t90.5 -114.5t125.5 -34q121 9 230.5 115.5
t125.5 242.5z" />
    <glyph glyph-name="multiply" unicode="&#xd7;" horiz-adv-x="435" 
d="M392 495l13 -13l-176 -176l174 -175l-12 -13l-175 175l-172 -172l-13 13l172 172l-173 173l13 13l173 -173z" />
    <glyph glyph-name="Oslash" unicode="&#xd8;" horiz-adv-x="786" 
d="M779 377q16 -149 -80.5 -261.5t-247.5 -124.5q-164 -12 -284 98l-87 -89h-14l93 96q-98 95 -111 225q-15 148 82 261t248 125q163 12 283 -98l82 84h14l-89 -91q97 -93 111 -225zM119 332q-15 -129 55 -222l475 487q-38 45 -89.5 68.5t-103.5 19.5q-117 -9 -219.5 -113
t-117.5 -240zM713 377q13 123 -58 212l-475 -487q34 -43 81 -65t96 -18q121 9 230.5 115.5t125.5 242.5z" />
    <glyph glyph-name="Ugrave" unicode="&#xd9;" horiz-adv-x="610" 
d="M401 750l-184 127l259 -127h-75zM22 352v341h101v-322q2 -182 56 -271.5t169 -89.5q139 0 213.5 101.5t74.5 259.5v322h19v-322q0 -75 -18.5 -141.5t-54.5 -120.5t-96.5 -86t-137.5 -32q-63 0 -119.5 20.5t-103.5 62t-75 113t-28 165.5z" />
    <glyph glyph-name="Uacute" unicode="&#xda;" horiz-adv-x="610" 
d="M302 750h-75l259 127zM22 352v341h101v-322q2 -182 56 -271.5t169 -89.5q139 0 213.5 101.5t74.5 259.5v322h19v-322q0 -75 -18.5 -141.5t-54.5 -120.5t-96.5 -86t-137.5 -32q-63 0 -119.5 20.5t-103.5 62t-75 113t-28 165.5z" />
    <glyph glyph-name="Ucircumflex" unicode="&#xdb;" horiz-adv-x="610" 
d="M498 740l-180 94l-178 -94l178 137zM22 352v341h101v-322q2 -182 56 -271.5t169 -89.5q139 0 213.5 101.5t74.5 259.5v322h19v-322q0 -75 -18.5 -141.5t-54.5 -120.5t-96.5 -86t-137.5 -32q-63 0 -119.5 20.5t-103.5 62t-75 113t-28 165.5z" />
    <glyph glyph-name="Udieresis" unicode="&#xdc;" horiz-adv-x="678" 
d="M221 734q-21 0 -36.5 15.5t-15.5 36.5q0 20 15.5 35.5t36.5 15.5q20 0 35.5 -15.5t15.5 -35.5q0 -21 -15.5 -36.5t-35.5 -15.5zM471 734q-21 0 -36.5 15.5t-15.5 36.5q0 20 15.5 35.5t36.5 15.5q20 0 35.5 -15.5t15.5 -35.5q0 -21 -15.5 -36.5t-35.5 -15.5zM22 352v341
h101v-322q2 -182 56 -271.5t169 -89.5q139 0 213.5 101.5t74.5 259.5v322h19v-322q0 -75 -18.5 -141.5t-54.5 -120.5t-96.5 -86t-137.5 -32q-63 0 -119.5 20.5t-103.5 62t-75 113t-28 165.5z" />
    <glyph glyph-name="Yacute" unicode="&#xdd;" horiz-adv-x="710" 
d="M352 750h-75l259 127zM330 0l4 23l-1 289l-377 381h117l350 -360l316 360h19l-326 -372v-298l3 -23h-105z" />
    <glyph glyph-name="Thorn" unicode="&#xde;" horiz-adv-x="545" 
d="M222 592q124 0 209 -58.5t85 -146.5q0 -70 -43.5 -123.5t-103.5 -78t-122 -25.5h-140v-160h-83v693h82v-101h116zM247 175q67 2 116.5 60t49.5 149t-59.5 145.5t-193.5 54.5h-53v-409h140z" />
    <glyph glyph-name="germandbls" unicode="&#xdf;" horiz-adv-x="600" 
d="M80 486q-8 144 94 213q81 55 183 37q98 -17 141 -89q24 -39 24 -87q1 -75 -54 -129.5t-188 -65.5q272 -22 272 -189q0 -59 -32.5 -104t-80 -65t-104.5 -19.5t-105 25.5l1 3q30 -19 70.5 -12.5t77 25.5t61.5 60t25 90q-2 183 -243 183v5q64 0 108.5 16.5t66 45.5t30 59.5
t8.5 67.5q-1 88 -43 130t-101 40q-52 -2 -89 -41.5t-37 -112.5l2 -534q0 -12 3.5 -18.5t12.5 -12t11 -7.5h-158q38 14 42 40q10 71 2 446z" />
    <glyph glyph-name="agrave" unicode="&#xe0;" horiz-adv-x="580" 
d="M239 610l-184 127l259 -127h-75zM58 392l82 101q44 18 97 19t101 -14.5t88 -41.5t64 -64.5t24 -80.5q0 -10 -1.5 -60.5t-0.5 -84.5v-14q0 -68 19.5 -107t50.5 -45q-136 0 -143 138v28l2 84l-1 -3q-69 -153 -162 -218q-52 -37 -106 -37q-89 0 -127 58q-37 55 -1 118
q48 84 194 114q3 1 7.5 2l18 4t27 6.5t32 9t34 10.5t32 11.5t27.5 12.5t18.5 13t7.5 13q2 87 -62.5 105.5t-173.5 -22.5zM113 117q26 -49 68 -58t85.5 15.5t83 63.5t65 87t26.5 85l1 37l-3 -3q-3 -2 -14.5 -9t-30 -15.5t-56 -19.5t-85.5 -22l-11 -2q-12 -3 -21.5 -6
t-26 -8.5t-29 -12.5t-26.5 -16t-22.5 -21t-13.5 -25.5t-2.5 -31.5t12.5 -38z" />
    <glyph glyph-name="aacute" unicode="&#xe1;" horiz-adv-x="580" 
d="M252 610h-75l259 127zM58 392l82 101q44 18 97 19t101 -14.5t88 -41.5t64 -64.5t24 -80.5q0 -10 -1.5 -60.5t-0.5 -84.5v-14q0 -68 19.5 -107t50.5 -45q-136 0 -143 138v28l2 84l-1 -3q-69 -153 -162 -218q-52 -37 -106 -37q-89 0 -127 58q-37 55 -1 118q48 84 194 114
q3 1 7.5 2l18 4t27 6.5t32 9t34 10.5t32 11.5t27.5 12.5t18.5 13t7.5 13q2 87 -62.5 105.5t-173.5 -22.5zM113 117q26 -49 68 -58t85.5 15.5t83 63.5t65 87t26.5 85l1 37l-3 -3q-3 -2 -14.5 -9t-30 -15.5t-56 -19.5t-85.5 -22l-11 -2q-12 -3 -21.5 -6t-26 -8.5t-29 -12.5
t-26.5 -16t-22.5 -21t-13.5 -25.5t-2.5 -31.5t12.5 -38z" />
    <glyph glyph-name="acircumflex" unicode="&#xe2;" horiz-adv-x="580" 
d="M465 588l-180 94l-178 -94l178 137zM58 392l82 101q44 18 97 19t101 -14.5t88 -41.5t64 -64.5t24 -80.5q0 -10 -1.5 -60.5t-0.5 -84.5v-14q0 -68 19.5 -107t50.5 -45q-136 0 -143 138v28l2 84l-1 -3q-69 -153 -162 -218q-52 -37 -106 -37q-89 0 -127 58q-37 55 -1 118
q48 84 194 114q3 1 7.5 2l18 4t27 6.5t32 9t34 10.5t32 11.5t27.5 12.5t18.5 13t7.5 13q2 87 -62.5 105.5t-173.5 -22.5zM113 117q26 -49 68 -58t85.5 15.5t83 63.5t65 87t26.5 85l1 37l-3 -3q-3 -2 -14.5 -9t-30 -15.5t-56 -19.5t-85.5 -22l-11 -2q-12 -3 -21.5 -6
t-26 -8.5t-29 -12.5t-26.5 -16t-22.5 -21t-13.5 -25.5t-2.5 -31.5t12.5 -38z" />
    <glyph glyph-name="atilde" unicode="&#xe3;" horiz-adv-x="580" 
d="M127 629q4 6 10.5 15t28.5 29.5t45.5 31.5t60.5 9t74 -26q3 -2 8.5 -5t22 -8t33 -4.5t40 10.5t44.5 32q-3 -5 -8 -13t-22 -25t-36 -27t-48 -9t-59 20t-61 23t-54 -4t-41.5 -19t-28.5 -21zM58 392l82 101q44 18 97 19t101 -14.5t88 -41.5t64 -64.5t24 -80.5
q0 -10 -1.5 -60.5t-0.5 -84.5v-14q0 -68 19.5 -107t50.5 -45q-136 0 -143 138v28l2 84l-1 -3q-69 -153 -162 -218q-52 -37 -106 -37q-89 0 -127 58q-37 55 -1 118q48 84 194 114q3 1 7.5 2l18 4t27 6.5t32 9t34 10.5t32 11.5t27.5 12.5t18.5 13t7.5 13q2 87 -62.5 105.5
t-173.5 -22.5zM113 117q26 -49 68 -58t85.5 15.5t83 63.5t65 87t26.5 85l1 37l-3 -3q-3 -2 -14.5 -9t-30 -15.5t-56 -19.5t-85.5 -22l-11 -2q-12 -3 -21.5 -6t-26 -8.5t-29 -12.5t-26.5 -16t-22.5 -21t-13.5 -25.5t-2.5 -31.5t12.5 -38z" />
    <glyph glyph-name="adieresis" unicode="&#xe4;" horiz-adv-x="580" 
d="M138 648q0 22 15 37.5t37 15.5t37.5 -15.5t15.5 -37.5t-15.5 -37t-37.5 -15t-37 15t-15 37zM358 648q0 22 15 37.5t37 15.5t37.5 -15.5t15.5 -37.5t-15.5 -37t-37.5 -15t-37 15t-15 37zM58 392l82 101q44 18 97 19t101 -14.5t88 -41.5t64 -64.5t24 -80.5
q0 -10 -1.5 -60.5t-0.5 -84.5v-14q0 -68 19.5 -107t50.5 -45q-136 0 -143 138v28l2 84l-1 -3q-69 -153 -162 -218q-52 -37 -106 -37q-89 0 -127 58q-37 55 -1 118q48 84 194 114q3 1 7.5 2l18 4t27 6.5t32 9t34 10.5t32 11.5t27.5 12.5t18.5 13t7.5 13q2 87 -62.5 105.5
t-173.5 -22.5zM113 117q26 -49 68 -58t85.5 15.5t83 63.5t65 87t26.5 85l1 37l-3 -3q-3 -2 -14.5 -9t-30 -15.5t-56 -19.5t-85.5 -22l-11 -2q-12 -3 -21.5 -6t-26 -8.5t-29 -12.5t-26.5 -16t-22.5 -21t-13.5 -25.5t-2.5 -31.5t12.5 -38z" />
    <glyph glyph-name="aring" unicode="&#xe5;" horiz-adv-x="580" 
d="M295 590q31 0 52.5 21.5t21.5 52.5t-21.5 52.5t-52.5 21.5t-52.5 -21.5t-21.5 -52.5t21.5 -52.5t52.5 -21.5zM295 718q22 0 38.5 -16t16.5 -38t-16.5 -38.5t-38.5 -16.5t-38 16.5t-16 38.5t15.5 38t38.5 16zM58 392l82 101q44 18 97 19t101 -14.5t88 -41.5t64 -64.5
t24 -80.5q0 -10 -1.5 -60.5t-0.5 -84.5v-14q0 -68 19.5 -107t50.5 -45q-136 0 -143 138v28l2 84l-1 -3q-69 -153 -162 -218q-52 -37 -106 -37q-89 0 -127 58q-37 55 -1 118q48 84 194 114q3 1 7.5 2l18 4t27 6.5t32 9t34 10.5t32 11.5t27.5 12.5t18.5 13t7.5 13
q2 87 -62.5 105.5t-173.5 -22.5zM113 117q26 -49 68 -58t85.5 15.5t83 63.5t65 87t26.5 85l1 37l-3 -3q-3 -2 -14.5 -9t-30 -15.5t-56 -19.5t-85.5 -22l-11 -2q-12 -3 -21.5 -6t-26 -8.5t-29 -12.5t-26.5 -16t-22.5 -21t-13.5 -25.5t-2.5 -31.5t12.5 -38z" />
    <glyph glyph-name="ae" unicode="&#xe6;" horiz-adv-x="992" 
d="M688 -14q-107 0 -175.5 74.5t-70.5 170.5l-1 -1l-1 -3q-66 -137 -157 -198q-55 -37 -111 -37q-89 0 -127 58q-37 55 -1 118q48 84 194 114q3 1 7.5 2l18 4t27 6.5t32 9t34 10.5t32 11.5t27.5 12.5t18.5 13t7.5 13q2 87 -62.5 105.5t-173.5 -22.5l-148 -55l82 101
q93 37 202 4t156 -108q69 93 175 117q75 17 165 -4q25 -6 44 -16.5t27.5 -20t13.5 -21t6 -16.5t1 -10q0 -69 -115 -72h-290q-2 -9 -4 -31v-4q-3 -49 12 -98.5t45 -91.5t80 -68.5t111 -26.5q49 0 107 33.5t91 94.5h6q-2 -7 -7.5 -19.5t-31 -42.5t-62.5 -52q-84 -54 -184 -54z
M528 360l219 7l52 3q32 2 40 20t-4.5 39t-35.5 35q-57 33 -128.5 19t-107.5 -57q-25 -28 -35 -66zM113 117q52 -77 124 -54t137 102.5t67 144.5l1 30l-3 -2q-3 -3 -14.5 -10t-30 -15.5t-56 -19.5t-85.5 -22q-1 0 -13.5 -3l-25 -6t-30.5 -9.5t-32 -14t-27.5 -20t-19.5 -26.5
t-5 -33.5t13 -41.5z" />
    <glyph glyph-name="ccedilla" unicode="&#xe7;" horiz-adv-x="518" 
d="M562 154h2l-2.5 -7.5t-9 -18.5t-18 -27t-29.5 -30t-43 -31q-86 -54 -194 -54h-4l-27 -52q30 8 63.5 7.5t59.5 -20.5t26 -54q0 -42 -38.5 -62.5t-85.5 -11.5q-36 7 -51 11v37q2 -1 12 -11.5t21.5 -19t23.5 -12.5q33 -9 57.5 9.5t24.5 59.5q0 48 -40.5 60.5t-93.5 -16.5
l3 8l35 67q-51 3 -94.5 25t-71.5 56t-45.5 76.5t-16.5 86t14 84.5q2 6 6.5 16.5t22 38.5t39.5 52t61 48.5t84 36.5q143 30 262 -39l-50 -90q-49 41 -108.5 68t-120 30.5t-95.5 -40.5q-28 -29 -39.5 -72.5t-7 -89.5t25 -92t52.5 -82.5t80.5 -59t104.5 -22.5q48 0 109.5 38
t95.5 99z" />
    <glyph glyph-name="egrave" unicode="&#xe8;" horiz-adv-x="514" 
d="M324 610h-75l-184 127zM550 154h3q-2 -7 -7.5 -19.5t-31 -42.5t-62.5 -52q-84 -54 -184 -54q-54 0 -100.5 21t-76 55t-49.5 77.5t-19.5 88t13.5 86.5q2 6 7 16.5t23 38.5t40.5 52t62 48.5t84.5 36.5q75 17 165 -4q25 -6 44 -16.5t27.5 -20t13.5 -21t6 -16.5t1 -10
q0 -69 -115 -72h-290q-6 -41 -4.5 -84t20 -85.5t46 -76t75 -54t107.5 -20.5q49 0 108.5 34t92.5 94zM143 426q-28 -31 -37 -74l273 8q32 1 40 21t-5 44.5t-35 38.5q-57 33 -128.5 19t-107.5 -57z" />
    <glyph glyph-name="eacute" unicode="&#xe9;" horiz-adv-x="514" 
d="M436 737l-184 -127h-75zM550 154h3q-2 -7 -7.5 -19.5t-31 -42.5t-62.5 -52q-84 -54 -184 -54q-54 0 -100.5 21t-76 55t-49.5 77.5t-19.5 88t13.5 86.5q2 6 7 16.5t23 38.5t40.5 52t62 48.5t84.5 36.5q75 17 165 -4q25 -6 44 -16.5t27.5 -20t13.5 -21t6 -16.5t1 -10
q0 -69 -115 -72h-290q-6 -41 -4.5 -84t20 -85.5t46 -76t75 -54t107.5 -20.5q49 0 108.5 34t92.5 94zM143 426q-28 -31 -37 -74l273 8q32 1 40 21t-5 44.5t-35 38.5q-57 33 -128.5 19t-107.5 -57z" />
    <glyph glyph-name="ecircumflex" unicode="&#xea;" horiz-adv-x="514" 
d="M455 588l-180 94l-178 -94l178 137zM550 154h3q-2 -7 -7.5 -19.5t-31 -42.5t-62.5 -52q-84 -54 -184 -54q-54 0 -100.5 21t-76 55t-49.5 77.5t-19.5 88t13.5 86.5q2 6 7 16.5t23 38.5t40.5 52t62 48.5t84.5 36.5q75 17 165 -4q25 -6 44 -16.5t27.5 -20t13.5 -21t6 -16.5
t1 -10q0 -69 -115 -72h-290q-6 -41 -4.5 -84t20 -85.5t46 -76t75 -54t107.5 -20.5q49 0 108.5 34t92.5 94zM143 426q-28 -31 -37 -74l273 8q32 1 40 21t-5 44.5t-35 38.5q-57 33 -128.5 19t-107.5 -57z" />
    <glyph glyph-name="edieresis" unicode="&#xeb;" horiz-adv-x="572" 
d="M179 596q-22 0 -37 15t-15 37t15 37.5t37 15.5t37.5 -15.5t15.5 -37.5t-15.5 -37t-37.5 -15zM419 596q-22 0 -37 15t-15 37t15 37.5t37 15.5t37.5 -15.5t15.5 -37.5t-15.5 -37t-37.5 -15zM550 154h3q-2 -7 -7.5 -19.5t-31 -42.5t-62.5 -52q-84 -54 -184 -54
q-54 0 -100.5 21t-76 55t-49.5 77.5t-19.5 88t13.5 86.5q2 6 7 16.5t23 38.5t40.5 52t62 48.5t84.5 36.5q75 17 165 -4q25 -6 44 -16.5t27.5 -20t13.5 -21t6 -16.5t1 -10q0 -69 -115 -72h-290q-6 -41 -4.5 -84t20 -85.5t46 -76t75 -54t107.5 -20.5q49 0 108.5 34t92.5 94z
M143 426q-28 -31 -37 -74l273 8q32 1 40 21t-5 44.5t-35 38.5q-57 33 -128.5 19t-107.5 -57z" />
    <glyph glyph-name="igrave" unicode="&#xec;" horiz-adv-x="254" 
d="M94 610l-184 127l259 -127h-75zM164 500v-440l4 -60h-90l4 60v440h82z" />
    <glyph glyph-name="iacute" unicode="&#xed;" horiz-adv-x="254" 
d="M164 610h-75l259 127zM164 500v-440l4 -60h-90l4 60v440h82z" />
    <glyph glyph-name="icircumflex" unicode="&#xee;" horiz-adv-x="254" 
d="M308 588l-180 94l-178 -94l178 137zM164 500v-440l4 -60h-90l4 60v440h82z" />
    <glyph glyph-name="idieresis" unicode="&#xef;" horiz-adv-x="254" 
d="M-2 648q0 22 15 37.5t37 15.5t37.5 -15.5t15.5 -37.5t-15.5 -37t-37.5 -15t-37 15t-15 37zM158 648q0 22 15 37.5t37 15.5t37.5 -15.5t15.5 -37.5t-15.5 -37t-37.5 -15t-37 15t-15 37zM164 500v-440l4 -60h-90l4 60v440h82z" />
    <glyph glyph-name="eth" unicode="&#xf0;" horiz-adv-x="600" 
d="M383 657q85 -92 128.5 -199t43.5 -198q0 -121 -82.5 -198t-193.5 -77q-106 0 -183.5 76t-75.5 183q1 106 82 186t187 80q46 0 91 -16t64 -57q-34 105 -112 193l-114 -62v17l103 56q-51 54 -119 98l39 35q74 -46 131 -106l132 72v-17zM299 3q80 0 122.5 68.5t30.5 197.5
q-11 113 -61.5 168.5t-124.5 55.5q-76 0 -118.5 -65t-33.5 -184q8 -112 59.5 -176.5t125.5 -64.5z" />
    <glyph glyph-name="ntilde" unicode="&#xf1;" horiz-adv-x="633" 
d="M137 629q4 6 10.5 15t28.5 29.5t45.5 31.5t60.5 9t74 -26q3 -2 8.5 -5t22 -8t33 -4.5t40 10.5t44.5 32q-3 -5 -8 -13t-22 -25t-36 -27t-48 -9t-59 20t-61 23t-54 -4t-41.5 -19t-28.5 -21zM81 0h121q-20 11 -20 23l2 317q38 62 83.5 100t86 45t75 -6t55 -51t20.5 -91v-314
l-20 -23h121l-20 23v322q0 57 -28 99t-73.5 57t-98 8.5t-107 -47t-94.5 -108.5l1 146h-84v-477q-1 -12 -20 -23z" />
    <glyph glyph-name="ograve" unicode="&#xf2;" horiz-adv-x="568" 
d="M249 610l-184 127l259 -127h-75zM410 487q97 -45 141 -154t0 -205q-28 -64 -89 -103t-129 -42t-135 24q-98 46 -143 151t-1 202q43 96 152 134.5t204 -7.5zM185 29q33 -16 72 -15.5t78 15.5t76 48.5t64 82.5q57 108 39.5 191t-88.5 116q-34 16 -72.5 17.5t-78 -12
t-77.5 -50.5t-66 -93q-50 -112 -33.5 -189.5t86.5 -110.5z" />
    <glyph glyph-name="oacute" unicode="&#xf3;" horiz-adv-x="568" 
d="M283 610h-75l259 127zM410 487q97 -45 141 -154t0 -205q-28 -64 -89 -103t-129 -42t-135 24q-98 46 -143 151t-1 202q43 96 152 134.5t204 -7.5zM185 29q33 -16 72 -15.5t78 15.5t76 48.5t64 82.5q57 108 39.5 191t-88.5 116q-34 16 -72.5 17.5t-78 -12t-77.5 -50.5
t-66 -93q-50 -112 -33.5 -189.5t86.5 -110.5z" />
    <glyph glyph-name="ocircumflex" unicode="&#xf4;" horiz-adv-x="568" 
d="M497 588l-180 94l-178 -94l178 137zM410 487q97 -45 141 -154t0 -205q-28 -64 -89 -103t-129 -42t-135 24q-98 46 -143 151t-1 202q43 96 152 134.5t204 -7.5zM185 29q33 -16 72 -15.5t78 15.5t76 48.5t64 82.5q57 108 39.5 191t-88.5 116q-34 16 -72.5 17.5t-78 -12
t-77.5 -50.5t-66 -93q-50 -112 -33.5 -189.5t86.5 -110.5z" />
    <glyph glyph-name="otilde" unicode="&#xf5;" horiz-adv-x="568" 
d="M109 629q4 6 10.5 15t28.5 29.5t45.5 31.5t60.5 9t74 -26q3 -2 8.5 -5t22 -8t33 -4.5t40 10.5t44.5 32q-3 -5 -8 -13t-22 -25t-36 -27t-48 -9t-59 20t-61 23t-54 -4t-41.5 -19t-28.5 -21zM410 487q97 -45 141 -154t0 -205q-28 -64 -89 -103t-129 -42t-135 24
q-98 46 -143 151t-1 202q43 96 152 134.5t204 -7.5zM185 29q33 -16 72 -15.5t78 15.5t76 48.5t64 82.5q57 108 39.5 191t-88.5 116q-34 16 -72.5 17.5t-78 -12t-77.5 -50.5t-66 -93q-50 -112 -33.5 -189.5t86.5 -110.5z" />
    <glyph glyph-name="odieresis" unicode="&#xf6;" horiz-adv-x="608" 
d="M138 648q0 22 15 37.5t37 15.5t37.5 -15.5t15.5 -37.5t-15.5 -37t-37.5 -15t-37 15t-15 37zM378 648q0 22 15 37.5t37 15.5t37.5 -15.5t15.5 -37.5t-15.5 -37t-37.5 -15t-37 15t-15 37zM410 487q97 -45 141 -154t0 -205q-28 -64 -89 -103t-129 -42t-135 24
q-98 46 -143 151t-1 202q43 96 152 134.5t204 -7.5zM185 29q33 -16 72 -15.5t78 15.5t76 48.5t64 82.5q57 108 39.5 191t-88.5 116q-34 16 -72.5 17.5t-78 -12t-77.5 -50.5t-66 -93q-50 -112 -33.5 -189.5t86.5 -110.5z" />
    <glyph glyph-name="divide" unicode="&#xf7;" horiz-adv-x="570" 
d="M262 464h48v-51h-48v51zM540 315v-18h-510v18h510zM262 189h48v-51h-48v51z" />
    <glyph glyph-name="oslash" unicode="&#xf8;" horiz-adv-x="568" 
d="M481 438q62 -60 83 -145.5t-13 -164.5q-28 -64 -89 -103t-129 -42t-135 24q-45 20 -81 58l-64 -65h-14l71 72q-55 59 -71 136.5t15 151.5q43 96 152 134.5t204 -7.5q34 -17 63 -42l54 55h14zM132 329q-72 -152 -11 -245l346 355q-20 18 -41 28q-34 16 -72.5 17.5t-78 -12
t-77.5 -50.5t-66 -93zM475 160q46 87 43.5 156.5t-44.5 114.5l-347 -355q23 -31 58 -47q33 -16 72 -15.5t78 15.5t76 48.5t64 82.5z" />
    <glyph glyph-name="ugrave" unicode="&#xf9;" horiz-adv-x="600" 
d="M238 610l-184 127l259 -127h-75zM12 500l1 -311q0 -42 17 -80.5t45.5 -64.5t64 -43t76 -14t78.5 21t73.5 63t59.5 111q-1 -106 28 -144.5t115 -38.5q-60 13 -60 153v348h-81l-2 -299q-23 -62 -53.5 -105t-62 -60.5t-63.5 -21t-60 11t-50 38.5t-34 59t-11 74l7 303h-88z
" />
    <glyph glyph-name="uacute" unicode="&#xfa;" horiz-adv-x="554" 
d="M252 610h-75l259 127zM12 500l1 -311q0 -42 17 -80.5t45.5 -64.5t64 -43t76 -14t78.5 21t73.5 63t59.5 111q-1 -106 28 -144.5t115 -38.5q-60 13 -60 153v348h-81l-2 -299q-23 -62 -53.5 -105t-62 -60.5t-63.5 -21t-60 11t-50 38.5t-34 59t-11 74l7 303h-88z" />
    <glyph glyph-name="ucircumflex" unicode="&#xfb;" horiz-adv-x="554" 
d="M414 588l-180 94l-178 -94l178 137zM12 500l1 -311q0 -42 17 -80.5t45.5 -64.5t64 -43t76 -14t78.5 21t73.5 63t59.5 111q-1 -106 28 -144.5t115 -38.5q-60 13 -60 153v348h-81l-2 -299q-23 -62 -53.5 -105t-62 -60.5t-63.5 -21t-60 11t-50 38.5t-34 59t-11 74l7 303h-88
z" />
    <glyph glyph-name="udieresis" unicode="&#xfc;" horiz-adv-x="604" 
d="M88 648q0 22 15 37.5t37 15.5t37.5 -15.5t15.5 -37.5t-15.5 -37t-37.5 -15t-37 15t-15 37zM358 648q0 22 15 37.5t37 15.5t37.5 -15.5t15.5 -37.5t-15.5 -37t-37.5 -15t-37 15t-15 37zM12 500l1 -311q0 -42 17 -80.5t45.5 -64.5t64 -43t76 -14t78.5 21t73.5 63t59.5 111
q-1 -106 28 -144.5t115 -38.5q-60 13 -60 153v348h-81l-2 -299q-23 -62 -53.5 -105t-62 -60.5t-63.5 -21t-60 11t-50 38.5t-34 59t-11 74l7 303h-88z" />
    <glyph glyph-name="yacute" unicode="&#xfd;" horiz-adv-x="547" 
d="M282 610h-75l259 127zM537 500q-38 -81 -100 -216q-154 -332 -210 -401.5t-183 -63.5l1 108q4 -1 10.5 -3t26 -6t39 -5.5t45.5 1.5t48 11.5t44 27.5t37 47l-272 500h98l220 -395l184 395h12z" />
    <glyph glyph-name="thorn" unicode="&#xfe;" horiz-adv-x="600" 
d="M74 -292v950l73 92v-301q45 38 94 55t92 12.5t82 -22.5t66 -51t43.5 -72.5t15 -88.5t-21.5 -97q-4 -8 -11 -21.5t-31 -48t-50 -60.5t-66 -47.5t-80 -21.5q-4 0 -11.5 0.5t-27.5 4t-36.5 10t-33 21t-22.5 33.5v-277zM147 445l3 -357q0 -46 39 -70.5t91 -24.5
q106 0 152 107q41 96 16 215q-25 117 -97 162q-88 56 -204 -32z" />
    <glyph glyph-name="ydieresis" unicode="&#xff;" horiz-adv-x="547" 
d="M138 648q0 22 15 37.5t37 15.5t37.5 -15.5t15.5 -37.5t-15.5 -37t-37.5 -15t-37 15t-15 37zM378 648q0 22 15 37.5t37 15.5t37.5 -15.5t15.5 -37.5t-15.5 -37t-37.5 -15t-37 15t-15 37zM537 500q-38 -81 -100 -216q-154 -332 -210 -401.5t-183 -63.5l1 108q4 -1 10.5 -3
t26 -6t39 -5.5t45.5 1.5t48 11.5t44 27.5t37 47l-272 500h98l220 -395l184 395h12z" />
    <glyph glyph-name="Amacron" unicode="&#x100;" horiz-adv-x="751" 
d="M478 766v-16h-289v16h289zM159 257l-45 -93q-8 -21 -13 -38.5t-8 -30.5t-0.5 -24t3.5 -18.5t10 -14.5t13 -10.5t18 -8.5t20 -6.5l24 -6t25 -6.5h-184l298 623q-8 16 -28.5 29.5t-47 25.5t-31.5 15h172l359 -693h-109l-130 257h-346zM500 268l-172 341l-164 -341h336z" />
    <glyph glyph-name="amacron" unicode="&#x101;" horiz-adv-x="580" 
d="M109 626h289v-16h-289v16zM58 392l82 101q44 18 97 19t101 -14.5t88 -41.5t64 -64.5t24 -80.5q0 -10 -1.5 -60.5t-0.5 -84.5v-14q0 -68 19.5 -107t50.5 -45q-136 0 -143 138v28l2 84l-1 -3q-69 -153 -162 -218q-52 -37 -106 -37q-89 0 -127 58q-37 55 -1 118
q48 84 194 114q3 1 7.5 2l18 4t27 6.5t32 9t34 10.5t32 11.5t27.5 12.5t18.5 13t7.5 13q2 87 -62.5 105.5t-173.5 -22.5zM113 117q26 -49 68 -58t85.5 15.5t83 63.5t65 87t26.5 85l1 37l-3 -3q-3 -2 -14.5 -9t-30 -15.5t-56 -19.5t-85.5 -22l-11 -2q-12 -3 -21.5 -6
t-26 -8.5t-29 -12.5t-26.5 -16t-22.5 -21t-13.5 -25.5t-2.5 -31.5t12.5 -38z" />
    <glyph glyph-name="Abreve" unicode="&#x102;" horiz-adv-x="751" 
d="M346 739q-41 0 -71 28.5t-34 69.5h19q3 -31 27 -55.5t59 -24.5q36 0 60.5 24.5t27.5 55.5h19q-4 -41 -34.5 -69.5t-72.5 -28.5zM159 257l-45 -93q-8 -21 -13 -38.5t-8 -30.5t-0.5 -24t3.5 -18.5t10 -14.5t13 -10.5t18 -8.5t20 -6.5l24 -6t25 -6.5h-184l298 623
q-8 16 -28.5 29.5t-47 25.5t-31.5 15h172l359 -693h-109l-130 257h-346zM500 268l-172 341l-164 -341h336z" />
    <glyph glyph-name="abreve" unicode="&#x103;" horiz-adv-x="580" 
d="M334 709q-3 -31 -27.5 -55.5t-60.5 -24.5q-35 0 -59 24.5t-27 55.5h-19q4 -41 34 -69.5t71 -28.5q42 0 72.5 28.5t34.5 69.5h-19zM58 392l82 101q44 18 97 19t101 -14.5t88 -41.5t64 -64.5t24 -80.5q0 -10 -1.5 -60.5t-0.5 -84.5v-14q0 -68 19.5 -107t50.5 -45
q-136 0 -143 138v28l2 84l-1 -3q-69 -153 -162 -218q-52 -37 -106 -37q-89 0 -127 58q-37 55 -1 118q48 84 194 114q3 1 7.5 2l18 4t27 6.5t32 9t34 10.5t32 11.5t27.5 12.5t18.5 13t7.5 13q2 87 -62.5 105.5t-173.5 -22.5zM113 117q26 -49 68 -58t85.5 15.5t83 63.5t65 87
t26.5 85l1 37l-3 -3q-3 -2 -14.5 -9t-30 -15.5t-56 -19.5t-85.5 -22l-11 -2q-12 -3 -21.5 -6t-26 -8.5t-29 -12.5t-26.5 -16t-22.5 -21t-13.5 -25.5t-2.5 -31.5t12.5 -38z" />
    <glyph glyph-name="Aogonek" unicode="&#x104;" horiz-adv-x="751" 
d="M613 -150q17 0 54 21l2 -2q-46 -31 -91 -31q-52 0 -73 33t2 72.5t82 56.5q32 9 20 46q-4 12 -31 70l-67 141h-323l-23 -55q-17 -38 -27 -65.5t-15.5 -43t-4 -31.5t2.5 -20.5t9 -20.5t10 -21h-105q23 20 46.5 56.5t34.5 67.5l217 491q-8 21 -22 34t-32.5 24t-27.5 20h151
l273 -569q43 -84 57 -102.5t32 -21.5h-128q-61 0 -80 -50q-17 -42 7 -75q19 -24 50 -25zM191 265h317l-161 342z" />
    <glyph glyph-name="aogonek" unicode="&#x105;" horiz-adv-x="580" 
d="M521 -127q22 0 55 19h1q-46 -31 -91 -31q-51 0 -72 32.5t1 71.5t80 57q-51 33 -56 116v28l2 84l-1 -3q-69 -153 -162 -218q-52 -37 -106 -37q-89 0 -127 58q-37 55 -1 118q48 84 194 114q3 1 7.5 2l18 4t27 6.5t32 9t34 10.5t32 11.5t27.5 12.5t18.5 13t7.5 13
q2 87 -62.5 105.5t-173.5 -22.5l-148 -55l82 101q44 18 97 19t101 -14.5t88 -41.5t64 -64.5t24 -80.5q0 -10 -1.5 -60.5t-0.5 -84.5v-14q0 -68 19.5 -107t50.5 -45q-50 0 -83 19q-45 -16 -55 -52t14 -65t63 -29zM441 310l1 37l-3 -3q-3 -2 -14.5 -9t-30 -15.5t-56 -19.5
t-85.5 -22l-11 -2q-12 -3 -21.5 -6t-26 -8.5t-29 -12.5t-26.5 -16t-22.5 -21t-13.5 -25.5t-2.5 -31.5t12.5 -38q26 -49 68 -58t85.5 15.5t83 63.5t65 87t26.5 85z" />
    <glyph glyph-name="Cacute" unicode="&#x106;" horiz-adv-x="782" 
d="M422 750h-75l259 127zM132 383q0 -97 35 -182t100.5 -138t144.5 -53q103 0 179.5 38.5t172.5 134.5l-14 -27q-26 -28 -56.5 -53.5t-74 -53.5t-97.5 -44.5t-110 -16.5q-163 1 -277.5 105t-114.5 250q0 74 30 140t80.5 111t117.5 76t141.5 36t151.5 -10q32 -6 61.5 -15
t59 -20t32.5 -12l4 -174q-40 82 -99.5 134.5t-121.5 70.5t-124.5 7.5t-111 -48t-79 -104.5t-30.5 -152z" />
    <glyph glyph-name="cacute" unicode="&#x107;" horiz-adv-x="540" 
d="M465 377q-49 41 -108.5 68t-120 30.5t-95.5 -40.5q-28 -29 -39.5 -72.5t-7 -89.5t25 -92t52.5 -82.5t80.5 -59t104.5 -22.5q48 0 109.5 38t95.5 99h2l-2.5 -7.5t-9 -18.5t-18 -27t-29.5 -30t-43 -31q-86 -54 -194 -54q-54 0 -100 21t-75 55t-48.5 77.5t-18.5 88t14 86.5
q2 6 6.5 16.5t22 38.5t39.5 52t61 48.5t84 36.5q143 30 262 -39z" />
    <glyph glyph-name="Ccaron" unicode="&#x10c;" horiz-adv-x="782" 
d="M588 877l-180 -137l-178 137l178 -94zM132 383q0 -97 35 -182t100.5 -138t144.5 -53q103 0 179.5 38.5t172.5 134.5l-14 -27q-26 -28 -56.5 -53.5t-74 -53.5t-97.5 -44.5t-110 -16.5q-163 1 -277.5 105t-114.5 250q0 74 30 140t80.5 111t117.5 76t141.5 36t151.5 -10
q32 -6 61.5 -15t59 -20t32.5 -12l4 -174q-40 82 -99.5 134.5t-121.5 70.5t-124.5 7.5t-111 -48t-79 -104.5t-30.5 -152z" />
    <glyph glyph-name="ccaron" unicode="&#x10d;" horiz-adv-x="518" 
d="M457 725l-180 -137l-178 137l178 -94zM465 377q-49 41 -108.5 68t-120 30.5t-95.5 -40.5q-28 -29 -39.5 -72.5t-7 -89.5t25 -92t52.5 -82.5t80.5 -59t104.5 -22.5q48 0 109.5 38t95.5 99h2l-2.5 -7.5t-9 -18.5t-18 -27t-29.5 -30t-43 -31q-86 -54 -194 -54q-54 0 -100 21
t-75 55t-48.5 77.5t-18.5 88t14 86.5q2 6 6.5 16.5t22 38.5t39.5 52t61 48.5t84 36.5q143 30 262 -39z" />
    <glyph glyph-name="Dcaron" unicode="&#x10e;" horiz-adv-x="766" 
d="M414 877l-180 -137l-178 137l178 -94zM51 693h278q166 0 276.5 -100.5t110.5 -245.5t-108 -246t-272 -101h-280q6 4 19 9.5t20.5 11t7.5 15.5v621q0 10 -24.5 21t-27.5 15zM189 12h147q124 0 200 95t76 239q0 152 -102 244t-321 92v-670z" />
    <glyph glyph-name="dcaron" unicode="&#x10f;" horiz-adv-x="656" 
d="M534 152q0 -139 60 -152q-69 0 -103.5 29t-39.5 71q-79 -111 -201 -111q-50 0 -93.5 21t-70.5 55t-45 77.5t-17.5 88t12.5 86.5q12 36 35.5 71t62 66.5t84.5 48.5t108 10t127 -43l3 263l78 73v-183l46 70h55l-101 -96v-445zM450 114l3 265q-42 48 -107 74t-133 16.5
t-109 -61.5q-35 -40 -35 -105t28.5 -124.5t87 -103t129.5 -43.5q82 0 136 74v8z" />
    <glyph glyph-name="dcroat" unicode="&#x111;" horiz-adv-x="607" 
d="M36 317q12 36 35.5 71t62 66.5t84.5 48.5t108 10t127 -43l3 263l78 73v-654q0 -139 60 -152q-69 0 -103.5 29t-39.5 71q-79 -111 -201 -111q-50 0 -93.5 21t-70.5 55t-45 77.5t-17.5 88t12.5 86.5zM104 408q-35 -40 -35 -105t28.5 -124.5t87 -103t129.5 -43.5
q82 0 136 74v8l3 265q-42 48 -107 74t-133 16.5t-109 -61.5z" />
    <glyph glyph-name="Emacron" unicode="&#x112;" horiz-adv-x="727" 
d="M155 765h269v-15h-269v15zM431 641q-46 27 -99.5 33.5t-171.5 5.5v-327h304v-11h-304v-330q70 -3 131 13.5t113 51.5t93.5 74.5t87.5 96.5l-126 -248h-389v693h433l64 -160z" />
    <glyph glyph-name="emacron" unicode="&#x113;" horiz-adv-x="514" 
d="M418 626v-16h-289v16h289zM550 154h3q-2 -7 -7.5 -19.5t-31 -42.5t-62.5 -52q-84 -54 -184 -54q-54 0 -100.5 21t-76 55t-49.5 77.5t-19.5 88t13.5 86.5q2 6 7 16.5t23 38.5t40.5 52t62 48.5t84.5 36.5q75 17 165 -4q25 -6 44 -16.5t27.5 -20t13.5 -21t6 -16.5t1 -10
q0 -69 -115 -72h-290q-6 -41 -4.5 -84t20 -85.5t46 -76t75 -54t107.5 -20.5q49 0 108.5 34t92.5 94zM143 426q-28 -31 -37 -74l273 8q32 1 40 21t-5 44.5t-35 38.5q-57 33 -128.5 19t-107.5 -57z" />
    <glyph glyph-name="Edotaccent" unicode="&#x116;" horiz-adv-x="665" 
d="M431 641q-46 27 -99.5 33.5t-171.5 5.5v-327h304v-11h-304v-330q70 -3 131 13.5t113 51.5t93.5 74.5t87.5 96.5l-126 -248h-389v693h433l64 -160z" />
    <glyph glyph-name="edotaccent" unicode="&#x117;" horiz-adv-x="514" 
d="M259 610q-17 0 -30 13t-13 30t13 29.5t30 12.5t29.5 -12.5t12.5 -29.5t-12.5 -30t-29.5 -13zM550 154h3q-2 -7 -7.5 -19.5t-31 -42.5t-62.5 -52q-84 -54 -184 -54q-54 0 -100.5 21t-76 55t-49.5 77.5t-19.5 88t13.5 86.5q2 6 7 16.5t23 38.5t40.5 52t62 48.5t84.5 36.5
q75 17 165 -4q25 -6 44 -16.5t27.5 -20t13.5 -21t6 -16.5t1 -10q0 -69 -115 -72h-290q-6 -41 -4.5 -84t20 -85.5t46 -76t75 -54t107.5 -20.5q49 0 108.5 34t92.5 94zM143 426q-28 -31 -37 -74l273 8q32 1 40 21t-5 44.5t-35 38.5q-57 33 -128.5 19t-107.5 -57z" />
    <glyph glyph-name="Eogonek" unicode="&#x118;" horiz-adv-x="727" 
d="M440 -150q17 0 54 21l2 -2q-46 -31 -91 -31q-52 0 -73 33t2 72.5t82 56.5h-340v693h433l64 -160l-136 108q-46 27 -99.5 33.5t-171.5 5.5v-327h304v-11h-304v-330q70 -3 131 13.5t113 51.5t93.5 74.5t87.5 96.5l-126 -248h-2q-61 0 -80 -50q-17 -42 7 -75q19 -24 50 -25z
" />
    <glyph glyph-name="eogonek" unicode="&#x119;" horiz-adv-x="514" 
d="M550 154h3q-2 -7 -7.5 -19.5t-31 -42.5t-62.5 -52q-45 -29 -102 -45q-29 -32 -15 -77t60 -45q17 0 54 21l2 -2q-46 -31 -91 -31q-61 0 -77.5 44.5t23.5 82.5q-26 -2 -38 -2q-54 0 -100.5 21t-76 55t-49.5 77.5t-19.5 88t13.5 86.5q2 6 7 16.5t23 38.5t40.5 52t62 48.5
t84.5 36.5q75 17 165 -4q25 -6 44 -16.5t27.5 -20t13.5 -21t6 -16.5t1 -10q0 -69 -115 -72h-290q-6 -41 -4.5 -84t20 -85.5t46 -76t75 -54t107.5 -20.5q49 0 108.5 34t92.5 94zM143 426q-28 -31 -37 -74l273 8q32 1 40 21t-5 44.5t-35 38.5q-57 33 -128.5 19t-107.5 -57z
" />
    <glyph glyph-name="Ecaron" unicode="&#x11a;" horiz-adv-x="727" 
d="M478 877l-180 -137l-178 137l178 -94zM431 641q-46 27 -99.5 33.5t-171.5 5.5v-327h304v-11h-304v-330q70 -3 131 13.5t113 51.5t93.5 74.5t87.5 96.5l-126 -248h-389v693h433l64 -160z" />
    <glyph glyph-name="ecaron" unicode="&#x11b;" horiz-adv-x="514" 
d="M456 725l-180 -137l-178 137l178 -94zM550 154h3q-2 -7 -7.5 -19.5t-31 -42.5t-62.5 -52q-84 -54 -184 -54q-54 0 -100.5 21t-76 55t-49.5 77.5t-19.5 88t13.5 86.5q2 6 7 16.5t23 38.5t40.5 52t62 48.5t84.5 36.5q75 17 165 -4q25 -6 44 -16.5t27.5 -20t13.5 -21
t6 -16.5t1 -10q0 -69 -115 -72h-290q-6 -41 -4.5 -84t20 -85.5t46 -76t75 -54t107.5 -20.5q49 0 108.5 34t92.5 94zM143 426q-28 -31 -37 -74l273 8q32 1 40 21t-5 44.5t-35 38.5q-57 33 -128.5 19t-107.5 -57z" />
    <glyph glyph-name="uni0122" unicode="&#x122;" horiz-adv-x="724" 
d="M46 343q0 71 22.5 131t61.5 100.5t91.5 70.5t113 42.5t125.5 16.5t130 -9q31 -6 61 -15t58.5 -19.5t33.5 -12.5l5 -174q-29 83 -85.5 136.5t-122 71.5t-135 4.5t-125.5 -55t-92 -117t-36 -171.5q0 -145 69 -239t189 -98q84 1 170 91l1 240l-289 7v6l380 5v-354
q-10 46 -38.5 71t-53.5 6q-81 -88 -170 -90q-158 3 -261 105.5t-103 249.5zM330 -61h55l-134 -127h-5z" />
    <glyph glyph-name="uni0123" unicode="&#x123;" horiz-adv-x="622" 
d="M322 610h-75l259 127zM305 -276q-214 0 -255.5 60t108.5 177q-49 12 -73 33l184 101q-83 18 -139.5 73.5t-61.5 123.5q-3 52 34 101.5t100 79.5t129 29q83 -2 331 -2l-177 -57q74 -54 84 -133q9 -65 -40 -120t-118.5 -80t-125.5 -16l-126 -70q23 -8 82.5 -11t121 -6.5
t122.5 -12t99.5 -32.5t38.5 -63q0 -47 -33 -82.5t-84 -54.5t-102.5 -28.5t-98.5 -9.5zM331 108q73 0 115 54t29 137q-30 189 -175 189q-73 0 -110.5 -49t-31.5 -140q10 -87 56.5 -139t116.5 -52zM549 -190q34 20 48.5 34t14.5 32q0 30 -67 45.5t-155 18.5q-147 4 -219 18
q-88 -55 -44 -112q40 -50 151 -71q138 -25 246 23q13 5 25 12z" />
    <glyph glyph-name="Imacron" unicode="&#x12a;" horiz-adv-x="194" 
d="M-27 766h249v-16h-249v16zM49 0l5 103q10 278 0 487l-5 103h96l-6 -103q-6 -247 0 -487l6 -103h-96z" />
    <glyph glyph-name="imacron" unicode="&#x12b;" horiz-adv-x="254" 
d="M78 648q0 22 15 37.5t37 15.5t37.5 -15.5t15.5 -37.5t-15.5 -37t-37.5 -15t-37 15t-15 37zM169 500q-15 -225 1 -495h-84q13 261 1 495h82z" />
    <glyph glyph-name="Iogonek" unicode="&#x12e;" horiz-adv-x="194" 
d="M49 0l5 103q10 278 0 487l-5 103h94l-6 -103q-6 -247 0 -487l6 -103h43q-61 0 -80 -50q-17 -42 7 -75q19 -24 50 -25q17 0 54 21l2 -2q-46 -31 -91 -31q-67 0 -84 43q-15 40 25 79q28 27 73 40h-93z" />
    <glyph glyph-name="iogonek" unicode="&#x12f;" horiz-adv-x="254" 
d="M78 648q0 22 15 37.5t37 15.5t37.5 -15.5t15.5 -37.5t-15.5 -37t-37.5 -15t-37 15t-15 37zM169 500q-15 -225 1 -495h-84q13 261 1 495h82zM168 -4q-38 -12 -51 -48t4.5 -67t54.5 -31q17 0 54 21l2 -2q-46 -31 -91 -31q-52 0 -73 33t2 72.5t82 56.5h16v-4z" />
    <glyph glyph-name="dotlessi" unicode="&#x131;" horiz-adv-x="239" 
d="M164 500v-440l4 -60h-90l4 60v440h82z" />
    <glyph glyph-name="uni0136" unicode="&#x136;" horiz-adv-x="764" 
d="M83 0q3 103 3 218.5t-1.5 256.5t-1.5 218h94v-278l474 278l23 1l-495 -290l453 -404h-119l-336 312v-312h-94zM350 -61h55l-134 -127h-5z" />
    <glyph glyph-name="uni0137" unicode="&#x137;" horiz-adv-x="630" 
d="M517 426l-33 -2q-33 -1 -54.5 -5t-57 -12t-68.5 -26t-61 -43q42 24 83.5 10t72 -48.5t64.5 -83t62 -93.5t64 -80t70 -43q-90 0 -152.5 37t-118.5 140q-21 39 -31.5 57t-28.5 43t-30.5 32.5t-30.5 11.5t-37.5 -6.5t-42.5 -32.5v-222l4 -60h-90l4 60v442q0 59 6 104.5
t39 115t94 124.5q-16 -23 -27.5 -51t-17.5 -49t-9 -59t-3.5 -52t0 -59t0.5 -52v-236q31 27 75 74t70 72t72 45.5t102 20.5q35 2 65 -4zM320 -61h55l-134 -127h-5z" />
    <glyph glyph-name="Lacute" unicode="&#x139;" horiz-adv-x="532" 
d="M302 750h-75l259 127zM76 0v693h90v-685q40 -1 75.5 2.5t63 9.5t53.5 19.5t44.5 25t38.5 33.5t33.5 38.5t32 46t30 49.5t31.5 56.5t34 59.5l-146 -348h-380z" />
    <glyph glyph-name="lacute" unicode="&#x13a;" horiz-adv-x="190" 
d="M135 97q3 -84 63 -97q-78 0 -111 22.5t-33 86.5l-1 387v6q0 44 3.5 77t15.5 81.5t42 96t76 89.5q-12 -17 -22 -37.5t-16 -37t-10.5 -42t-7 -39.5t-3.5 -43.5t-1 -40v-43v-39.5v-28q-3 -211 5 -399z" />
    <glyph glyph-name="uni013B" unicode="&#x13b;" horiz-adv-x="472" 
d="M76 0v693h90v-685q40 -1 75.5 2.5t63 9.5t53.5 19.5t44.5 25t38.5 33.5t33.5 38.5t32 46t30 49.5t31.5 56.5t34 59.5l-146 -348h-380zM220 -61h55l-134 -127h-5z" />
    <glyph glyph-name="uni013C" unicode="&#x13c;" horiz-adv-x="211" 
d="M198 0q-78 0 -111 22.5t-33 86.5l-1 387v6q0 44 3.5 77t15.5 81.5t42 96t76 89.5q-12 -17 -22 -37.5t-16 -37t-10.5 -42t-7 -39.5t-3.5 -43.5t-1 -40v-43v-39.5v-28q-3 -211 5 -399q3 -84 63 -97zM150 -61h55l-134 -127h-5z" />
    <glyph glyph-name="Lcaron" unicode="&#x13d;" horiz-adv-x="472" 
d="M76 0v693h90v-685q40 -1 75.5 2.5t63 9.5t53.5 19.5t44.5 25t38.5 33.5t33.5 38.5t32 46t30 49.5t31.5 56.5t34 59.5l-146 -348h-380zM370 693h55l-134 -127h-5z" />
    <glyph glyph-name="lcaron" unicode="&#x13e;" horiz-adv-x="298" 
d="M135 97q3 -84 63 -97q-78 0 -111 22.5t-33 86.5l-1 387v6q0 44 3.5 77t15.5 81.5t42 96t76 89.5q-12 -17 -22 -37.5t-16 -37t-10.5 -42t-7 -39.5t-3.5 -43.5t-1 -40v-43v-39.5v-28q-3 -211 5 -399zM169 566h-5l84 127h55z" />
    <glyph glyph-name="Lslash" unicode="&#x141;" horiz-adv-x="472" 
d="M166 8q40 -1 75.5 2.5t63 9.5t53.5 19.5t44.5 25t38.5 33.5t33.5 38.5t32 46t30 49.5t31.5 56.5t34 59.5l-146 -348h-380v339l-78 -59v15l78 59v339h90v-270l128 97v-15l-128 -97v-400z" />
    <glyph glyph-name="lslash" unicode="&#x142;" horiz-adv-x="211" 
d="M234 503l-105 -104q0 -175 6 -302q3 -84 63 -97q-78 0 -111 22.5t-33 86.5l-1 214l-45 -45v17l45 45v162q0 44 3.5 77t15.5 81.5t42 96t76 89.5q-12 -17 -22 -37.5t-16 -37t-10.5 -42t-7 -39.5t-3.5 -43.5t-1 -40v-43v-39.5v-28q0 -13 -0.5 -39.5t-0.5 -40.5l105 104v-17
z" />
    <glyph glyph-name="Nacute" unicode="&#x143;" horiz-adv-x="776" 
d="M432 750h-75l259 127zM720 -15h-2q-39 53 -119 144t-96 110l-361 351v-493q14 -37 120 -97h-132v597q-11 18 -52 54t-46 41v1h150l532 -533l5 533h10z" />
    <glyph glyph-name="nacute" unicode="&#x144;" horiz-adv-x="673" 
d="M322 610h-75l259 127zM81 0h121q-20 11 -20 23l2 317q38 62 83.5 100t86 45t75 -6t55 -51t20.5 -91v-314l-20 -23h121l-20 23v322q0 57 -28 99t-73.5 57t-98 8.5t-107 -47t-94.5 -108.5l1 146h-84v-477q-1 -12 -20 -23z" />
    <glyph glyph-name="uni0145" unicode="&#x145;" horiz-adv-x="717" 
d="M720 -15h-2q-39 53 -119 144t-96 110l-361 351v-493q14 -37 120 -97h-132v597q-11 18 -52 54t-46 41v1h150l532 -533l5 533h10zM388 -61h55l-134 -127h-5z" />
    <glyph glyph-name="uni0146" unicode="&#x146;" horiz-adv-x="633" 
d="M81 0h121q-20 11 -20 23l2 317q38 62 83.5 100t86 45t75 -6t55 -51t20.5 -91v-314l-20 -23h121l-20 23v322q0 57 -28 99t-73.5 57t-98 8.5t-107 -47t-94.5 -108.5l1 146h-84v-477q-1 -12 -20 -23zM310 -61h55l-134 -127h-5z" />
    <glyph glyph-name="Ncaron" unicode="&#x147;" horiz-adv-x="717" 
d="M576 877l-180 -137l-178 137l178 -94zM720 -15h-2q-39 53 -119 144t-96 110l-361 351v-493q14 -37 120 -97h-132v597q-11 18 -52 54t-46 41v1h150l532 -533l5 533h10z" />
    <glyph glyph-name="ncaron" unicode="&#x148;" horiz-adv-x="633" 
d="M486 725l-180 -137l-178 137l178 -94zM81 0h121q-20 11 -20 23l2 317q38 62 83.5 100t86 45t75 -6t55 -51t20.5 -91v-314l-20 -23h121l-20 23v322q0 57 -28 99t-73.5 57t-98 8.5t-107 -47t-94.5 -108.5l1 146h-84v-477q-1 -12 -20 -23z" />
    <glyph glyph-name="Eng" unicode="&#x14a;" horiz-adv-x="800" 
d="M537 -160v5q67 0 114 15t68.5 38.5t27 51.5t-5 55t-32.5 49q-54 58 -160 156l-404 370v-456q0 -42 10.5 -68.5t22 -34.5t28 -13.5t19.5 -7.5h-144q18 6 27.5 18.5t16 56t6.5 123.5v391q-8 27 -23.5 44.5t-38.5 33.5t-32 25v1h136l582 -540l-2 437q0 19 -2.5 32.5
t-11 23.5t-14.5 15.5t-25 10.5t-29 7t-39.5 6.5t-44.5 7.5h185v-708q0 -34 -10 -58.5t-35 -45t-72.5 -31t-117.5 -10.5z" />
    <glyph glyph-name="eng" unicode="&#x14b;" horiz-adv-x="633" 
d="M468 327q0 66 -28 107.5t-69.5 51t-93 -12.5t-96.5 -75l-2 -398h-79v500h82l-1 -94q48 59 112.5 86t119.5 19.5t93.5 -51.5t38.5 -115v-345q0 -47 -16 -79.5t-48.5 -50t-73 -25t-95.5 -7.5v6q75 5 115 40.5t41 115.5v327z" />
    <glyph glyph-name="Omacron" unicode="&#x14c;" horiz-adv-x="786" 
d="M269 766h289v-16h-289v16zM779 377q16 -149 -80.5 -261.5t-247.5 -124.5q-152 -11 -269.5 85t-133.5 245q-15 148 82 261t248 125q151 11 268.5 -85.5t132.5 -244.5zM713 377q14 134 -69 225.5t-188 82.5q-117 -9 -219.5 -113t-117.5 -240q-10 -89 22 -164.5t90.5 -114.5
t125.5 -34q121 9 230.5 115.5t125.5 242.5z" />
    <glyph glyph-name="omacron" unicode="&#x14d;" horiz-adv-x="568" 
d="M139 626h289v-16h-289v16zM410 487q97 -45 141 -154t0 -205q-28 -64 -89 -103t-129 -42t-135 24q-98 46 -143 151t-1 202q43 96 152 134.5t204 -7.5zM185 29q33 -16 72 -15.5t78 15.5t76 48.5t64 82.5q57 108 39.5 191t-88.5 116q-34 16 -72.5 17.5t-78 -12t-77.5 -50.5
t-66 -93q-50 -112 -33.5 -189.5t86.5 -110.5z" />
    <glyph glyph-name="Ohungarumlaut" unicode="&#x150;" horiz-adv-x="786" 
d="M348 877h55l-134 -127h-5zM558 877h55l-134 -127h-5zM779 377q16 -149 -80.5 -261.5t-247.5 -124.5q-152 -11 -269.5 85t-133.5 245q-15 148 82 261t248 125q151 11 268.5 -85.5t132.5 -244.5zM713 377q14 134 -69 225.5t-188 82.5q-117 -9 -219.5 -113t-117.5 -240
q-10 -89 22 -164.5t90.5 -114.5t125.5 -34q121 9 230.5 115.5t125.5 242.5z" />
    <glyph glyph-name="ohungarumlaut" unicode="&#x151;" horiz-adv-x="568" 
d="M244 692h55l-134 -127h-5zM454 692h55l-134 -127h-5zM410 487q97 -45 141 -154t0 -205q-28 -64 -89 -103t-129 -42t-135 24q-98 46 -143 151t-1 202q43 96 152 134.5t204 -7.5zM185 29q33 -16 72 -15.5t78 15.5t76 48.5t64 82.5q57 108 39.5 191t-88.5 116
q-34 16 -72.5 17.5t-78 -12t-77.5 -50.5t-66 -93q-50 -112 -33.5 -189.5t86.5 -110.5z" />
    <glyph glyph-name="OE" unicode="&#x152;" horiz-adv-x="1324" 
d="M757 12q70 -3 131 13.5t113 51.5t93.5 74.5t87.5 96.5l-126 -248h-389v121q-43 -56 -105 -90t-134 -40q-144 -11 -255 85t-126 245q-14 148 77.5 261t234.5 125q91 7 172.5 -31.5t135.5 -111.5v129h433l64 -160l-136 108q-46 27 -99.5 33.5t-171.5 5.5v-327h304v-11h-304
v-330zM664 375q14 137 -57 228t-181 82q-109 -9 -193.5 -111t-99.5 -241q-15 -140 47 -232t171 -84q112 9 204.5 114t108.5 244z" />
    <glyph glyph-name="oe" unicode="&#x153;" horiz-adv-x="1059" 
d="M1034 154h6q-2 -7 -7.5 -19.5t-31 -42.5t-62.5 -52q-84 -54 -184 -54q-70 0 -125 34.5t-87 90.5q-48 -87 -151.5 -117t-193.5 13q-98 46 -143 151t-1 202q43 96 152 134.5t204 -7.5q87 -40 132 -134q72 125 198 153q75 17 165 -4q25 -6 44 -16.5t27.5 -20t13.5 -21
t6 -16.5t1 -10q0 -69 -115 -72h-290q-10 -50 1.5 -105.5t40.5 -103.5t82 -79.5t120 -31.5q49 0 107 33.5t91 94.5zM475 160q23 40 34 81q1 30 9 60q2 58 -23 101.5t-69 64.5q-34 16 -72.5 17.5t-78 -12t-77.5 -50.5t-66 -93q-50 -112 -33.5 -189.5t86.5 -110.5
q33 -16 72 -15.5t78 15.5t76 48.5t64 82.5zM630 426q-25 -28 -35 -66l219 7l52 3q32 2 40 20t-4.5 39t-35.5 35q-57 33 -128.5 19t-107.5 -57z" />
    <glyph glyph-name="Racute" unicode="&#x154;" horiz-adv-x="765" 
d="M332 750h-75l259 127zM597 0q-12 25 -44 45.5t-70 34.5t-80.5 36.5t-77 49t-57 74t-22.5 109.5v18h104q39 0 66.5 5.5t54 20t40 45t13.5 76.5q0 87 -50.5 128t-124.5 41h-184v-683h-91v693h297q105 0 179 -51t74 -125q0 -42 -21.5 -73.5t-57.5 -49t-75.5 -26.5t-82.5 -9
h-132q0 -73 60 -117t176 -68q156 -40 168 -174h-62z" />
    <glyph glyph-name="racute" unicode="&#x155;" horiz-adv-x="389" 
d="M195 610h-75l259 127zM381 434l-22 -1q-53 -2 -90 -14t-54 -30t-24 -32t-8 -28v-279q0 -17 8.5 -28t14 -13.5t20.5 -8.5h-139q13 31 13 50l1 326v124h82v-150q3 41 62 95.5t140 54.5q17 1 38 0z" />
    <glyph glyph-name="uni0156" unicode="&#x156;" horiz-adv-x="719" 
d="M597 0q-12 25 -44 45.5t-70 34.5t-80.5 36.5t-77 49t-57 74t-22.5 109.5v18h104q39 0 66.5 5.5t54 20t40 45t13.5 76.5q0 87 -50.5 128t-124.5 41h-184v-683h-91v693h297q105 0 179 -51t74 -125q0 -42 -21.5 -73.5t-57.5 -49t-75.5 -26.5t-82.5 -9h-132q0 -73 60 -117
t176 -68q156 -40 168 -174h-62zM330 -61h55l-134 -127h-5z" />
    <glyph glyph-name="uni0157" unicode="&#x157;" horiz-adv-x="389" 
d="M381 434l-22 -1q-53 -2 -90 -14t-54 -30t-24 -32t-8 -28v-279q0 -17 8.5 -28t14 -13.5t20.5 -8.5h-139q13 31 13 50l1 326v124h82v-150q3 41 62 95.5t140 54.5q17 1 38 0zM139 -61h55l-134 -127h-5z" />
    <glyph glyph-name="Rcaron" unicode="&#x158;" horiz-adv-x="719" 
d="M458 877l-180 -137l-178 137l178 -94zM597 0q-12 25 -44 45.5t-70 34.5t-80.5 36.5t-77 49t-57 74t-22.5 109.5v18h104q39 0 66.5 5.5t54 20t40 45t13.5 76.5q0 87 -50.5 128t-124.5 41h-184v-683h-91v693h297q105 0 179 -51t74 -125q0 -42 -21.5 -73.5t-57.5 -49
t-75.5 -26.5t-82.5 -9h-132q0 -73 60 -117t176 -68q156 -40 168 -174h-62z" />
    <glyph glyph-name="rcaron" unicode="&#x159;" horiz-adv-x="389" 
d="M392 725l-180 -137l-178 137l178 -94zM381 434l-22 -1q-53 -2 -90 -14t-54 -30t-24 -32t-8 -28v-279q0 -17 8.5 -28t14 -13.5t20.5 -8.5h-139q13 31 13 50l1 326v124h82v-150q3 41 62 95.5t140 54.5q17 1 38 0z" />
    <glyph glyph-name="Sacute" unicode="&#x15a;" horiz-adv-x="637" 
d="M332 750h-75l259 127zM343 -14q-26 0 -48.5 0.5t-44.5 4t-35.5 5.5t-34.5 8.5t-29 8.5t-31.5 10.5t-29.5 10.5l-32 268h6q17 -170 87.5 -238.5t191.5 -66.5q50 1 86.5 14t54.5 34t26 41t8 40q0 37 -26 66.5t-68 50.5t-92.5 40t-101.5 40t-93.5 46t-69 63t-27.5 86
q0 19 5 40t22 47t43.5 46.5t74 35.5t109.5 17q60 2 125.5 -2.5t101.5 -9.5l36 -6l28 -233h-5q-12 126 -109 188q-53 35 -121 47t-125.5 2.5t-96 -41t-37.5 -77.5q2 -55 53 -92.5t122 -61.5t142 -50t121.5 -74t51.5 -118q1 -95 -66 -141.5t-172 -48.5z" />
    <glyph glyph-name="sacute" unicode="&#x15b;" horiz-adv-x="420" 
d="M193 610h-75l259 127zM76 207q0 -131 89 -186q64 -40 133 -19q62 19 75 72q3 12 3 25q-1 31 -38.5 54.5t-90.5 41.5t-106.5 37t-92.5 50.5t-42 73.5q-10 112 110.5 146.5t286.5 -25.5v-150h-6q-5 34 -19.5 64.5t-41.5 57.5t-73 40.5t-106 7.5q-20 -3 -34.5 -6.5t-34 -12
t-29 -24.5t-7.5 -39q3 -36 41.5 -60.5t92.5 -40t108 -32.5t93 -48t42 -76q3 -38 -13.5 -71.5t-33.5 -49.5q-49 -45 -119 -49.5t-159 13.5q-21 2 -32 4l-2 204z" />
    <glyph glyph-name="Scedilla" unicode="&#x15e;" horiz-adv-x="637" 
d="M91 572q2 -55 53 -92.5t122 -61.5t142 -50t121.5 -74t51.5 -118q1 -95 -66 -141.5t-172 -48.5h-6l-30 -42q30 8 63.5 7.5t59.5 -20.5t26 -54q0 -42 -38.5 -62.5t-85.5 -11.5q-36 7 -51 11v37q2 -1 12 -11.5t21.5 -19t23.5 -12.5q33 -9 57.5 9.5t24.5 59.5
q0 48 -40.5 60.5t-93.5 -16.5l3 8l20 57q-21 1 -39.5 2.5t-37.5 5t-30 5.5t-31 8t-26 7.5t-28.5 10t-26.5 9.5l-32 268h6q17 -170 87.5 -238.5t191.5 -66.5q50 1 86.5 14t54.5 34t26 41t8 40q0 37 -26 66.5t-68 50.5t-92.5 40t-101.5 40t-93.5 46t-69 63t-27.5 86q0 19 5 40
t22 47t43.5 46.5t74 35.5t109.5 17q60 2 125.5 -2.5t101.5 -9.5l36 -6l28 -233h-5q-12 126 -109 188q-53 35 -121 47t-125.5 2.5t-96 -41t-37.5 -77.5z" />
    <glyph glyph-name="scedilla" unicode="&#x15f;" horiz-adv-x="420" 
d="M23 356q-5 55 26 93.5t82.5 53.5t118 9t130.5 -35v-150h-6q-5 34 -19 65t-38 59t-64 42t-89 8q-25 -3 -44.5 -9.5t-36.5 -26.5t-14 -50q3 -36 37 -60.5t81 -40t94 -32.5t81.5 -48t37.5 -76q3 -49 -20.5 -86t-55.5 -57q-33 -20 -40.5 -54.5t10.5 -61t51 -26.5q17 0 54 21
l2 -2q-46 -31 -91 -31q-62 0 -78 46t28 84q-56 -10 -206 11q-13 2 -20 3l-2 204l6 -2q0 -124 87 -181q66 -43 137 -25q65 17 81 76q4 16 4 32q-1 39 -33.5 67t-79 44.5t-93 32.5t-81 41.5t-37.5 61.5z" />
    <glyph glyph-name="Scaron" unicode="&#x160;" horiz-adv-x="581" 
d="M462 877l-180 -137l-178 137l178 -94zM343 -14q-26 0 -48.5 0.5t-44.5 4t-35.5 5.5t-34.5 8.5t-29 8.5t-31.5 10.5t-29.5 10.5l-32 268h6q17 -170 87.5 -238.5t191.5 -66.5q50 1 86.5 14t54.5 34t26 41t8 40q0 37 -26 66.5t-68 50.5t-92.5 40t-101.5 40t-93.5 46t-69 63
t-27.5 86q0 19 5 40t22 47t43.5 46.5t74 35.5t109.5 17q60 2 125.5 -2.5t101.5 -9.5l36 -6l28 -233h-5q-12 126 -109 188q-53 35 -121 47t-125.5 2.5t-96 -41t-37.5 -77.5q2 -55 53 -92.5t122 -61.5t142 -50t121.5 -74t51.5 -118q1 -95 -66 -141.5t-172 -48.5z" />
    <glyph glyph-name="scaron" unicode="&#x161;" horiz-adv-x="420" 
d="M386 725l-180 -137l-178 137l178 -94zM76 207q0 -131 89 -186q64 -40 133 -19q62 19 75 72q3 12 3 25q-1 31 -38.5 54.5t-90.5 41.5t-106.5 37t-92.5 50.5t-42 73.5q-10 112 110.5 146.5t286.5 -25.5v-150h-6q-5 34 -19.5 64.5t-41.5 57.5t-73 40.5t-106 7.5
q-20 -3 -34.5 -6.5t-34 -12t-29 -24.5t-7.5 -39q3 -36 41.5 -60.5t92.5 -40t108 -32.5t93 -48t42 -76q3 -38 -13.5 -71.5t-33.5 -49.5q-49 -45 -119 -49.5t-159 13.5q-21 2 -32 4l-2 204z" />
    <glyph glyph-name="uni0162" unicode="&#x162;" horiz-adv-x="710" 
d="M640 693l43 -234l-4 -1q-17 54 -42.5 101.5t-67.5 86t-89 38.5h-81v-640q1 -28 20 -44h-20l-62 -53q30 8 63.5 7.5t59.5 -20.5t26 -54q0 -42 -38.5 -62.5t-85.5 -11.5q-36 7 -51 11v37q2 -1 12 -11.5t21.5 -19t23.5 -12.5q33 -9 57.5 9.5t24.5 59.5q0 46 -53.5 55.5
t-106.5 -20.5l9 17l70 68h-78q18 7 20 43v641h-79q-47 0 -89.5 -38.5t-67.5 -85.5t-42 -101h-4l42 234h569z" />
    <glyph glyph-name="uni0163" unicode="&#x163;" horiz-adv-x="485" 
d="M468 174q-47 -103 -146 -153q-91 -47 -161 -18t-70 124v315h-65l146 179v-121h207l-50 -58h-157l-3 -339q0 -81 64 -90q63 -9 140 50q63 47 93 113z" />
    <glyph glyph-name="Tcaron" unicode="&#x164;" horiz-adv-x="721" 
d="M538 877l-180 -137l-178 137l178 -94zM29 459l42 234h569l43 -234l-4 -1q-17 54 -42.5 101.5t-67.5 86t-89 38.5h-81v-640q1 -28 20 -44h-128q18 7 20 43v641h-79q-47 0 -89.5 -38.5t-67.5 -85.5t-42 -101h-4z" />
    <glyph glyph-name="tcaron" unicode="&#x165;" horiz-adv-x="439" 
d="M308 693h55l-134 -127h-5zM468 174q-47 -103 -146 -153q-91 -47 -161 -18t-70 124v315h-65l146 179v-121h207l-50 -58h-157l-3 -339q0 -81 64 -90q63 -9 140 50q63 47 93 113z" />
    <glyph glyph-name="Tbar" unicode="&#x166;" horiz-adv-x="721" 
d="M480 684h-81v-269h230v-15h-230v-356q1 -28 20 -44h-128q18 7 20 43v357h-229v15h229v269h-79q-47 0 -89.5 -38.5t-67.5 -85.5t-42 -101h-4l42 234h569l43 -234l-4 -1q-17 54 -42.5 101.5t-67.5 86t-89 38.5z" />
    <glyph glyph-name="tbar" unicode="&#x167;" horiz-adv-x="439" 
d="M466 176l2 -2q-47 -103 -146 -153q-91 -47 -161 -18t-70 124v214h-50v14h50v87h-65l146 179v-121h207l-50 -58h-157l-1 -87h175v-14h-175l-2 -238q0 -81 64 -90q63 -9 140 50q63 47 93 113z" />
    <glyph glyph-name="Umacron" unicode="&#x16a;" horiz-adv-x="678" 
d="M22 352v341h101v-322q2 -182 56 -271.5t169 -89.5q139 0 213.5 101.5t74.5 259.5v322h19v-322q0 -75 -18.5 -141.5t-54.5 -120.5t-96.5 -86t-137.5 -32q-63 0 -119.5 20.5t-103.5 62t-75 113t-28 165.5z" />
    <glyph glyph-name="umacron" unicode="&#x16b;" horiz-adv-x="554" 
d="M93 626h289v-16h-289v16zM12 500l1 -311q0 -42 17 -80.5t45.5 -64.5t64 -43t76 -14t78.5 21t73.5 63t59.5 111q-1 -106 28 -144.5t115 -38.5q-60 13 -60 153v348h-81l-2 -299q-23 -62 -53.5 -105t-62 -60.5t-63.5 -21t-60 11t-50 38.5t-34 59t-11 74l7 303h-88z" />
    <glyph glyph-name="Uring" unicode="&#x16e;" horiz-adv-x="718" 
d="M390 739q33 0 56.5 23.5t23.5 56.5t-23.5 56t-56.5 23t-56 -23t-23 -56t23 -56.5t56 -23.5zM390 877q24 0 41.5 -17t17.5 -41t-17.5 -41.5t-41.5 -17.5t-41 17.5t-17 41.5t17 41t41 17zM22 352v341h101v-322q2 -182 56 -271.5t169 -89.5q139 0 213.5 101.5t74.5 259.5
v322h19v-322q0 -75 -18.5 -141.5t-54.5 -120.5t-96.5 -86t-137.5 -32q-63 0 -119.5 20.5t-103.5 62t-75 113t-28 165.5z" />
    <glyph glyph-name="uring" unicode="&#x16f;" horiz-adv-x="554" 
d="M246 590q31 0 52.5 21.5t21.5 52.5t-21.5 52.5t-52.5 21.5t-52.5 -21.5t-21.5 -52.5t21.5 -52.5t52.5 -21.5zM246 718q22 0 38.5 -16t16.5 -38t-16.5 -38.5t-38.5 -16.5t-38 16.5t-16 38.5t16 38t38 16zM12 500l1 -311q0 -42 17 -80.5t45.5 -64.5t64 -43t76 -14t78.5 21
t73.5 63t59.5 111q-1 -106 28 -144.5t115 -38.5q-60 13 -60 153v348h-81l-2 -299q-23 -62 -53.5 -105t-62 -60.5t-63.5 -21t-60 11t-50 38.5t-34 59t-11 74l7 303h-88z" />
    <glyph glyph-name="Uhungarumlaut" unicode="&#x170;" horiz-adv-x="610" 
d="M338 877h55l-134 -127h-5zM548 877h55l-134 -127h-5zM22 352v341h101v-322q2 -182 56 -271.5t169 -89.5q139 0 213.5 101.5t74.5 259.5v322h19v-322q0 -75 -18.5 -141.5t-54.5 -120.5t-96.5 -86t-137.5 -32q-63 0 -119.5 20.5t-103.5 62t-75 113t-28 165.5z" />
    <glyph glyph-name="uhungarumlaut" unicode="&#x171;" horiz-adv-x="554" 
d="M208 693h55l-134 -127h-5zM418 693h55l-134 -127h-5zM12 500l1 -311q0 -42 17 -80.5t45.5 -64.5t64 -43t76 -14t78.5 21t73.5 63t59.5 111q-1 -106 28 -144.5t115 -38.5q-60 13 -60 153v348h-81l-2 -299q-23 -62 -53.5 -105t-62 -60.5t-63.5 -21t-60 11t-50 38.5t-34 59
t-11 74l7 303h-88z" />
    <glyph glyph-name="Uogonek" unicode="&#x172;" horiz-adv-x="600" 
d="M248 766h289v-16h-289v16zM22 352v341h101v-322q2 -182 56 -271.5t169 -89.5q139 0 213.5 101.5t74.5 259.5v322h19v-322q0 -75 -18.5 -141.5t-54.5 -120.5t-96.5 -86t-137.5 -32q-63 0 -119.5 20.5t-103.5 62t-75 113t-28 165.5z" />
    <glyph glyph-name="uogonek" unicode="&#x173;" horiz-adv-x="595" 
d="M12 500h89v-293q0 -85 43.5 -140.5t107.5 -55.5q85 0 166 117v25l2 349h79v-350q0 -149 60 -162q-42 0 -70.5 10.5t-42.5 30t-20 38.5t-8 45q-46 -70 -113 -104q-36 -19 -36 -65q0 -29 19.5 -50.5t53.5 -21.5q20 0 62 21l3 -2q-53 -31 -105 -31q-43 0 -68.5 19.5
t-25.5 47.5q0 34 36 63q-16 -3 -33 -3q-81 0 -139 56.5t-59 144.5z" />
    <glyph glyph-name="Wcircumflex" unicode="&#x174;" horiz-adv-x="1039" 
d="M738 740l-180 94l-178 -94l178 137zM1012 693l-348 -707l-159 285l-141 -285l-395 707h111l323 -598l95 189l-229 409h111l167 -310l155 310h10l-158 -322l149 -276l299 598h10z" />
    <glyph glyph-name="wcircumflex" unicode="&#x175;" horiz-adv-x="888" 
d="M607 588l-180 94l-178 -94l178 137zM779 499l-253 -513l-120 215l-106 -215l-287 513h98l227 -416l62 128l-161 288h98l108 -197l96 197h12l-103 -208l114 -208l203 416h12z" />
    <glyph glyph-name="Ycircumflex" unicode="&#x176;" horiz-adv-x="710" 
d="M538 740l-180 94l-178 -94l178 137zM330 0l4 23l-1 289l-377 381h117l350 -360l316 360h19l-326 -372v-298l3 -23h-105z" />
    <glyph glyph-name="ycircumflex" unicode="&#x177;" horiz-adv-x="547" 
d="M484 588l-180 94l-178 -94l178 137zM537 500q-38 -81 -100 -216q-154 -332 -210 -401.5t-183 -63.5l1 108q4 -1 10.5 -3t26 -6t39 -5.5t45.5 1.5t48 11.5t44 27.5t37 47l-272 500h98l220 -395l184 395h12z" />
    <glyph glyph-name="Ydieresis" unicode="&#x178;" horiz-adv-x="710" 
d="M237 734q-21 0 -36.5 15.5t-15.5 36.5q0 20 15.5 35.5t36.5 15.5q20 0 35.5 -15.5t15.5 -35.5q0 -21 -15.5 -36.5t-35.5 -15.5zM487 734q-21 0 -36.5 15.5t-15.5 36.5q0 20 15.5 35.5t36.5 15.5q20 0 35.5 -15.5t15.5 -35.5q0 -21 -15.5 -36.5t-35.5 -15.5zM330 0l4 23
l-1 289l-377 381h117l350 -360l316 360h19l-326 -372v-298l3 -23h-105z" />
    <glyph glyph-name="Zacute" unicode="&#x179;" horiz-adv-x="722" 
d="M352 750h-75l259 127zM-16 445l86 248h642l-706 -682l256 1q69 0 124 15t94.5 38t77.5 66.5t65.5 86t65.5 110.5l-106 -328h-599l548 682l-31 1q-71 2 -128.5 -2t-98.5 -10.5t-76.5 -22t-57 -28t-45.5 -37t-37 -41t-36 -48t-38 -49.5z" />
    <glyph glyph-name="zacute" unicode="&#x17a;" horiz-adv-x="602" 
d="M352 610h-75l259 127zM58 247l78 253h493l-560 -492l181 -1q263 2 361 323h1l-93 -330h-469l426 495h-50h-46.5t-44.5 -2t-46.5 -6.5t-43 -12.5t-43.5 -20t-39 -31t-39 -43.5t-33 -58t-31 -74.5h-2z" />
    <glyph glyph-name="Zdotaccent" unicode="&#x17b;" horiz-adv-x="722" 
d="M355 734q-21 0 -36.5 15.5t-15.5 36.5q0 20 15.5 35.5t36.5 15.5q20 0 35.5 -15.5t15.5 -35.5q0 -21 -15.5 -36.5t-35.5 -15.5zM-16 445l86 248h642l-706 -682l256 1q69 0 124 15t94.5 38t77.5 66.5t65.5 86t65.5 110.5l-106 -328h-599l548 682l-31 1q-71 2 -128.5 -2
t-98.5 -10.5t-76.5 -22t-57 -28t-45.5 -37t-37 -41t-36 -48t-38 -49.5z" />
    <glyph glyph-name="zdotaccent" unicode="&#x17c;" horiz-adv-x="602" 
d="M319 610q-17 0 -30 13t-13 30t13 29.5t30 12.5t29.5 -12.5t12.5 -29.5t-12.5 -30t-29.5 -13zM58 247l78 253h493l-560 -492l181 -1q263 2 361 323h1l-93 -330h-469l426 495h-50h-46.5t-44.5 -2t-46.5 -6.5t-43 -12.5t-43.5 -20t-39 -31t-39 -43.5t-33 -58t-31 -74.5h-2z
" />
    <glyph glyph-name="Zcaron" unicode="&#x17d;" horiz-adv-x="741" 
d="M528 877l-180 -137l-178 137l178 -94zM-16 445l86 248h642l-706 -682l256 1q69 0 124 15t94.5 38t77.5 66.5t65.5 86t65.5 110.5l-106 -328h-599l548 682l-31 1q-71 2 -128.5 -2t-98.5 -10.5t-76.5 -22t-57 -28t-45.5 -37t-37 -41t-36 -48t-38 -49.5z" />
    <glyph glyph-name="zcaron" unicode="&#x17e;" horiz-adv-x="600" 
d="M532 725l-180 -137l-178 137l178 -94zM58 247l78 253h493l-560 -492l181 -1q263 2 361 323h1l-93 -330h-469l426 495h-50h-46.5t-44.5 -2t-46.5 -6.5t-43 -12.5t-43.5 -20t-39 -31t-39 -43.5t-33 -58t-31 -74.5h-2z" />
    <glyph glyph-name="gravecomb" unicode="&#x300;" 
 />
    <glyph glyph-name="acutecomb" unicode="&#x301;" 
 />
    <glyph glyph-name="uni0302" unicode="&#x302;" 
 />
    <glyph glyph-name="tildecomb" unicode="&#x303;" 
 />
    <glyph glyph-name="uni0304" unicode="&#x304;" 
 />
    <glyph glyph-name="uni0306" unicode="&#x306;" 
d="M-166 837q-3 -31 -27.5 -55.5t-60.5 -24.5q-35 0 -59 24.5t-27 55.5h-19q4 -41 34 -69.5t71 -28.5q42 0 72.5 28.5t34.5 69.5h-19z" />
    <glyph glyph-name="uni0308" unicode="&#x308;" 
 />
    <glyph glyph-name="uni030A" unicode="&#x30a;" 
 />
    <glyph glyph-name="uni030B" unicode="&#x30b;" 
 />
    <glyph glyph-name="uni030C" unicode="&#x30c;" 
d="M-142 877l-180 -137l-178 137l178 -94z" />
    <glyph glyph-name="uni0312" unicode="&#x312;" 
 />
    <glyph glyph-name="uni0326" unicode="&#x326;" 
 />
    <glyph glyph-name="uni0327" unicode="&#x327;" 
 />
    <glyph glyph-name="uni0328" unicode="&#x328;" 
 />
    <glyph glyph-name="uni0335" unicode="&#x335;" 
 />
    <glyph glyph-name="Wgrave" unicode="&#x1e80;" horiz-adv-x="1039" 
d="M476 750h-75l-184 127zM1012 693l-348 -707l-159 285l-141 -285l-395 707h111l323 -598l95 189l-229 409h111l167 -310l155 310h10l-158 -322l149 -276l299 598h10z" />
    <glyph glyph-name="wgrave" unicode="&#x1e81;" horiz-adv-x="888" 
d="M442 610h-75l-184 127zM779 499l-253 -513l-120 215l-106 -215l-287 513h98l227 -416l62 128l-161 288h98l108 -197l96 197h12l-103 -208l114 -208l203 416h12z" />
    <glyph glyph-name="Wacute" unicode="&#x1e82;" horiz-adv-x="1039" 
d="M686 877l-184 -127h-75zM1012 693l-348 -707l-159 285l-141 -285l-395 707h111l323 -598l95 189l-229 409h111l167 -310l155 310h10l-158 -322l149 -276l299 598h10z" />
    <glyph glyph-name="wacute" unicode="&#x1e83;" horiz-adv-x="888" 
d="M625 737l-184 -127h-75zM779 499l-253 -513l-120 215l-106 -215l-287 513h98l227 -416l62 128l-161 288h98l108 -197l96 197h12l-103 -208l114 -208l203 416h12z" />
    <glyph glyph-name="Wdieresis" unicode="&#x1e84;" horiz-adv-x="1039" 
d="M415 734q-21 0 -36.5 15.5t-15.5 36.5q0 20 15.5 35.5t36.5 15.5q20 0 35.5 -15.5t15.5 -35.5q0 -21 -15.5 -36.5t-35.5 -15.5zM665 734q-21 0 -36.5 15.5t-15.5 36.5q0 20 15.5 35.5t36.5 15.5q20 0 35.5 -15.5t15.5 -35.5q0 -21 -15.5 -36.5t-35.5 -15.5zM1012 693
l-348 -707l-159 285l-141 -285l-395 707h111l323 -598l95 189l-229 409h111l167 -310l155 310h10l-158 -322l149 -276l299 598h10z" />
    <glyph glyph-name="wdieresis" unicode="&#x1e85;" horiz-adv-x="888" 
d="M323 610q-17 0 -30 13t-13 30t13 29.5t30 12.5t29.5 -12.5t12.5 -29.5t-12.5 -30t-29.5 -13zM518 610q-17 0 -30 13t-13 30t13 29.5t30 12.5t30 -12.5t13 -29.5t-13 -30t-30 -13zM779 499l-253 -513l-120 215l-106 -215l-287 513h98l227 -416l62 128l-161 288h98
l108 -197l96 197h12l-103 -208l114 -208l203 416h12z" />
    <glyph glyph-name="Ygrave" unicode="&#x1ef2;" horiz-adv-x="710" 
d="M331 750l-184 127l259 -127h-75zM330 0l4 23l-1 289l-377 381h117l350 -360l316 360h19l-326 -372v-298l3 -23h-105z" />
    <glyph glyph-name="ygrave" unicode="&#x1ef3;" horiz-adv-x="547" 
d="M278 610l-184 127l259 -127h-75zM537 500q-38 -81 -100 -216q-154 -332 -210 -401.5t-183 -63.5l1 108q4 -1 10.5 -3t26 -6t39 -5.5t45.5 1.5t48 11.5t44 27.5t37 47l-272 500h98l220 -395l184 395h12z" />
    <glyph glyph-name="endash" unicode="&#x2013;" horiz-adv-x="600" 
d="M550 310v-14h-500v14h500z" />
    <glyph glyph-name="emdash" unicode="&#x2014;" horiz-adv-x="1100" 
d="M1050 310v-14h-1000v14h1000z" />
    <glyph glyph-name="quoteleft" unicode="&#x2018;" horiz-adv-x="210" 
d="M50 648q-1 15 1.5 35.5t23 61t59.5 70.5h5q-2 -2 -5.5 -4.5t-12.5 -11.5t-16 -17.5t-12 -20t-4.5 -22t9.5 -21t27 -18.5q35 -14 35 -51q0 -21 -16.5 -37.5t-39.5 -16.5q-21 0 -37.5 16t-16.5 37z" />
    <glyph glyph-name="quoteright" unicode="&#x2019;" horiz-adv-x="170" 
d="M140 650q1 -15 -1.5 -35.5t-23 -61t-59.5 -70.5h-5q2 2 5.5 4.5t12.5 11.5t16 17.5t12 20t4.5 22t-9.5 21t-27 18.5q-35 14 -35 51q0 21 16.5 37.5t39.5 16.5q21 0 37.5 -16t16.5 -37z" />
    <glyph glyph-name="quotesinglbase" unicode="&#x201a;" horiz-adv-x="600" 
d="M160 53q1 -15 -1.5 -35.5t-23 -61t-59.5 -70.5h-5q4 3 10.5 8.5t19.5 21t18.5 29t-2 29.5t-32.5 26q-35 16 -35 52q0 21 16.5 37.5t39.5 16.5q21 0 37.5 -16.5t16.5 -36.5z" />
    <glyph glyph-name="quotedblleft" unicode="&#x201c;" horiz-adv-x="363" 
d="M50 648q-1 15 1.5 35.5t23 61t59.5 70.5h5q-2 -2 -5.5 -4.5t-12.5 -11.5t-16 -17.5t-12 -20t-4.5 -22t9.5 -21t27 -18.5q35 -14 35 -51q0 -21 -16.5 -37.5t-39.5 -16.5q-21 0 -37.5 16t-16.5 37zM203 648q-1 15 1.5 35.5t23 61t59.5 70.5h5q-2 -2 -5.5 -4.5t-12.5 -11.5
t-15.5 -17.5t-12 -20t-5 -22t9.5 -21t27 -18.5q35 -13 35 -51q0 -21 -16.5 -37.5t-39.5 -16.5q-21 0 -37.5 16t-16.5 37z" />
    <glyph glyph-name="quotedblright" unicode="&#x201d;" horiz-adv-x="363" 
d="M160 752q1 -15 -1.5 -35.5t-23 -61t-59.5 -70.5h-5q2 2 5.5 4.5t12.5 11.5t15.5 17.5t12 20t4.5 22t-10 21t-27 18.5q-34 14 -34 51q0 21 16.5 37.5t39.5 16.5q21 0 37.5 -16t16.5 -37zM313 752q1 -15 -1.5 -35.5t-23 -61t-59.5 -70.5h-5q2 2 5.5 4.5t12.5 11.5
t15.5 17.5t12 20t5 22t-9.5 21t-27 18.5q-35 13 -35 51q0 21 16.5 37.5t39.5 16.5q21 0 37.5 -16t16.5 -37z" />
    <glyph glyph-name="quotedblbase" unicode="&#x201e;" horiz-adv-x="380" 
d="M106 106q21 0 37.5 -16.5t16.5 -36.5q1 -15 -1.5 -35.5t-23 -61t-59.5 -70.5h-5q4 3 10.5 8.5t19.5 21t18.5 29t-2 29.5t-32.5 26q-35 16 -35 52q0 21 16.5 37.5t39.5 16.5zM330 53q1 -15 -1.5 -35.5t-23 -61t-59.5 -70.5h-5q4 3 10.5 8.5t19.5 21t18.5 29t-2 29.5
t-32.5 26q-35 16 -35 52q0 21 16.5 37.5t39.5 16.5q21 0 37.5 -16.5t16.5 -36.5z" />
    <glyph glyph-name="bullet" unicode="&#x2022;" horiz-adv-x="591" 
d="M298 59q-103 0 -175.5 72.5t-72.5 175.5q0 96 73 169.5t175 73.5q94 0 168.5 -74.5t74.5 -168.5q0 -101 -74 -174.5t-169 -73.5z" />
    <glyph glyph-name="ellipsis" unicode="&#x2026;" horiz-adv-x="600" 
d="M92 97q20 0 35.5 -15.5t15.5 -35.5q0 -21 -15.5 -36.5t-35.5 -15.5q-21 0 -36.5 15.5t-15.5 36.5q0 20 15.5 35.5t36.5 15.5z" />
    <glyph glyph-name="perthousand" unicode="&#x2030;" horiz-adv-x="1066" 
d="M633 711l9 -8l-585 -715l-9 7zM303 661q51 -43 54 -111.5t-44 -122.5q-47 -53 -116.5 -60t-120.5 37q-51 43 -53.5 112t44.5 122t116.5 60t119.5 -37zM268 476q48 54 58.5 101t-25.5 81q-41 29 -90 13.5t-102 -67.5q-50 -49 -59 -105t28 -88q40 -29 90.5 -10t99.5 75z
M990 295q51 -43 53.5 -112t-44.5 -122t-116.5 -60t-120.5 36q-50 44 -53 112.5t44 121.5q47 54 116.5 61t120.5 -37zM615 294q51 -43 53.5 -112t-44.5 -122t-116.5 -60t-120.5 36q-50 44 -53 112.5t44 121.5q47 54 116.5 61t120.5 -37zM955 109q48 55 58 101.5t-25 81.5
q-40 29 -90 13.5t-102 -67.5q-50 -49 -59 -105t28 -88q40 -29 90.5 -10t99.5 74zM580 108q48 55 58 101.5t-25 81.5q-40 29 -90 13.5t-102 -67.5q-50 -49 -59 -105t28 -88q40 -29 90.5 -10t99.5 74z" />
    <glyph glyph-name="fraction" unicode="&#x2044;" horiz-adv-x="682" 
d="M75 11l512 693l20 -15l-512 -693z" />
    <glyph glyph-name="Euro" unicode="&#x20ac;" horiz-adv-x="692" 
d="M173 274q22 -115 85.5 -189.5t151.5 -74.5q77 0 136.5 25t123.5 84v-15q-126 -116 -260 -116q-130 1 -229 82t-124 204h-37v13h34q-4 36 -4 56q0 28 5 61h-35v13h37q20 102 93 176t174 101t204 2q23 -5 46.5 -12t38.5 -13l32.5 -13l22.5 -9l4 -174q-36 79 -87.5 131
t-105 71.5t-108.5 12t-99 -40.5t-74 -93t-35 -139h359l-4 -13h-356v-21q0 -46 8 -96h305l-5 -13h-297z" />
    <glyph glyph-name="trademark" unicode="&#x2122;" horiz-adv-x="1606" 
d="M29 459l42 234h569l43 -234l-4 -1q-17 54 -42.5 101.5t-67.5 86t-89 38.5h-81v-640q1 -28 20 -44h-128q18 7 20 43v641h-79q-47 0 -89.5 -38.5t-67.5 -85.5t-42 -101h-4zM677 692v1h129l364 -409l290 409h91v-693h-89v679l-339 -473l-343 379l-3 -585h-7v579
q0 22 -32 56.5t-61 56.5z" />
    <glyph glyph-name="product" unicode="&#x220f;" horiz-adv-x="738" 
d="M688 693v-12h-150v-681h-75v681h-183v-681h-75v681h-155v12h638z" />
    <glyph glyph-name="summation" unicode="&#x2211;" horiz-adv-x="712" 
d="M72 0l230 348l-230 345h474l85 -187q-32 34 -79 65t-114 60t-158.5 44.5t-193.5 11.5l309 -339l-307 -339q51 0 98 5t84.5 13t75 22.5t64 26.5t56 32t46.5 33t41 36t33.5 33.5t29 32.5t24.5 27l-137 -270h-431z" />
    <glyph glyph-name="minus" unicode="&#x2212;" horiz-adv-x="600" 
d="M540 315v-18h-510v18h510z" />
    <glyph glyph-name="notequal" unicode="&#x2260;" horiz-adv-x="466" 
d="M436 367h-133l-110 -122h243v-18h-259l-71 -79l-14 12l60 67h-122v18h138l110 122h-248v18h264l69 77l14 -12l-58 -65h117v-18z" />
    <glyph glyph-name="B.ss01" horiz-adv-x="646" 
d="M42 693h243q137 0 210.5 -45t73.5 -119q0 -64 -52 -116.5t-148 -60.5q115 0 184.5 -45.5t69.5 -112.5q0 -74 -75 -134t-171 -60h-333l53 3v672zM180 355h114q78 0 133.5 50t55.5 127q0 38 -11.5 63.5t-42.5 46.5t-92.5 30.5t-156.5 9.5v-327zM180 10h53q125 0 206.5 52.5
t79.5 122.5q-3 81 -66.5 118t-158.5 37h-114v-330z" />
    <glyph glyph-name="F.ss01" horiz-adv-x="600" 
d="M185 677v-297h292v-9h-292v-325l1 -46h-87l1 19l-1 239v419l-34 16h437l53 -79q-43 23 -140 41.5t-181 21.5h-49z" />
    <glyph glyph-name="M.ss01" horiz-adv-x="919" 
d="M17 692v1h154l276 -597l325 597h88v-602q-1 -35 5.5 -51t24 -26.5t20.5 -13.5h-186q22 15 30 23t14.5 31t5.5 62v549l-364 -679l-293 596v-458q0 -35 2 -58t7.5 -34.5t8.5 -16t11.5 -9t10.5 -6.5h-106q18 6 27.5 18.5t16 56t6.5 123.5v401q-8 25 -22 40.5t-33.5 29
t-28.5 23.5z" />
    <glyph glyph-name="R.ss01" horiz-adv-x="652" 
d="M76 693h271q114 0 189 -49.5t75 -135.5q0 -74 -80.5 -132t-244.5 -61q19 -49 66 -84t99 -59.5t103.5 -54t90 -84.5t47.5 -134q-21 25 -70 59t-100.5 68.5t-104 76t-91 97t-50.5 116.5q-2 6 -7 7h6q64 0 113 17t76 44.5t40.5 58t13.5 62.5q0 89 -52 134.5t-174 45.5h-73
v-685h-96l10 25l1 649z" />
    <glyph glyph-name="T.ss01" horiz-adv-x="599" 
d="M20 693h559v-16h-239v-677h-81v677h-239v16z" />
    <glyph glyph-name="U.ss01" horiz-adv-x="722" 
d="M358 -9q-147 0 -249.5 104t-105.5 263q2 89 90 170q19 25 -6 50.5t-71 35.5h354l-10 -374h-5v289l-250 -1q-90 -86 -91 -170q4 -121 102 -197t242 -76q96 0 171.5 37t117 95t55 129t-4.5 138.5t-71.5 125t-136.5 86.5l174 -5q2 -5 12.5 -33.5t19.5 -58.5t15 -61
q13 -64 9 -130t-16.5 -126.5t-42.5 -113.5t-70.5 -92.5t-100.5 -62t-131 -22.5z" />
    <glyph glyph-name="W.ss01" horiz-adv-x="952" 
d="M968 693l-297 -693h-35l-157 335l-164 -335h-37l-288 693h95l252 -611l136 268l-162 343h94l120 -254l127 254h12l-133 -269l161 -342l264 611h12z" />
    <glyph glyph-name="E.ss02" horiz-adv-x="600" 
d="M151 16q77 -4 198.5 16t171.5 47l-53 -79h-403v693h403l53 -79q-43 23 -140 41.5t-181 21.5h-49v-322q51 13 85 10.5t101 -8.5t115 -2v-15q-46 -4 -111.5 2t-100.5 8t-89 -10v-324z" />
    <glyph glyph-name="T.ss02" horiz-adv-x="710" 
d="M29 459l44 248q30 -17 58 -17h451q28 -1 55 17l46 -248l-4 -1q-17 54 -42.5 101t-67.5 85t-89 38h-81v-662q0 -10 22 -13t41.5 -3.5t16.5 -3.5h-248q-1 1 4 2q4 1 17 1q58 3 59 16v663h-79q-47 0 -89.5 -38t-67.5 -84.5t-42 -100.5h-4z" />
    <glyph glyph-name="S_S" horiz-adv-x="1308" 
d="M41 302h6q7 -70 28 -123.5t50.5 -87t68.5 -55t78.5 -29.5t83.5 -7q50 1 86.5 13.5t54.5 33t26 40t8 39.5q0 37 -26 66.5t-68 50.5t-92.5 40t-101.5 40t-93.5 46t-69 63t-27.5 86q0 19 5 40t22 47t43.5 46.5t74 35.5t109.5 17q95 3 163.5 -19.5t106 -63t61.5 -93.5
t37 -112t25 -118.5t32.5 -113t53.5 -95t93.5 -66t146.5 -23.5q95 1 135 40t40 86q0 37 -26 66.5t-68 50.5t-92.5 40t-101.5 40t-93.5 46t-69 63t-27.5 86q0 19 5 40t22 47t43.5 46.5t74 35.5t109.5 17q60 2 125.5 -2.5t101.5 -9.5l36 -6l28 -233h-5q-6 67 -32.5 106
t-76.5 71q-72 46 -163 55.5t-155 -21.5t-62 -92q2 -55 52.5 -92.5t122 -61.5t142.5 -50t121.5 -74t51.5 -118q1 -95 -66 -141.5t-172 -48.5q-83 -1 -141.5 6t-101.5 32t-69 51t-47 82.5t-32 106t-28 142.5q-10 74 -44.5 134.5t-78.5 89.5q-71 46 -162 56t-155.5 -21.5
t-62.5 -92.5q2 -55 52.5 -92.5t122 -61.5t142.5 -50t121.5 -74t51.5 -118q1 -95 -66 -141.5t-172 -48.5q-28 0 -54 1t-44.5 2t-40.5 5t-32.5 5.5t-31 8t-26.5 8t-28 9.5t-26 9z" />
    <glyph glyph-name="f_b" horiz-adv-x="974" 
d="M33 441l50 59q0 143 133 217q95 53 201 47q80 -3 92 -38q2 -4 2 -9l-1 -177v-91q50 38 105 55t103.5 12.5t93 -22.5t76 -51t50 -72.5t17 -88.5t-24.5 -97q-4 -8 -12.5 -21.5t-36.5 -48t-58.5 -60.5t-76.5 -47.5t-93 -21.5q-6 0 -16.5 0.5t-37 6t-47 14.5t-37 28.5
t-16.5 46.5q0 25 -37 -37l-33 -59v668q-1 21 -14 34t-39.5 17.5t-45 6t-52 0t-38.5 -1.5q-16 0 -29 -7.5t-21 -19t-13.5 -28t-8 -32t-3.5 -33.5t-1 -30t0.5 -24t0.5 -13l1 -24v1h155l-50 -59h-104v-393l7 -48h-98l7 40v401h-50zM510 433l3 -342q0 -46 39.5 -67.5
t100.5 -21.5q122 0 176 107q47 92 23 207q-24 111 -98 158q-104 63 -244 -41z" />
    <glyph glyph-name="f_h" horiz-adv-x="963" 
d="M33 441l50 59q0 143 133 217q95 53 201 47q80 -3 92 -38q2 -4 2 -9v-313q50 60 120.5 87.5t132 20t105 -51.5t43.5 -115v-345h-80v327q0 88 -53 129.5t-129 23t-139 -90.5v-389h-82v651q0 16 -7 28t-20.5 18t-28.5 10t-35.5 4.5t-35.5 0.5t-34.5 -1t-27.5 -1
q-16 0 -29 -7.5t-21 -19t-13.5 -28t-8 -32t-3.5 -33.5t-1 -30t0.5 -24t0.5 -13l1 -24v1h155l-50 -59h-104v-393l7 -48h-98l7 40v401h-50z" />
    <glyph glyph-name="f_j" horiz-adv-x="600" 
d="M33 441l50 59q0 147 142 223q97 52 205 48q73 -2 80 -30q1 -2 1 -4q0 -17 -17.5 -25.5t-50 -10t-63.5 0t-74.5 5t-65.5 3.5q-16 0 -29 -7t-21 -18.5t-13.5 -28t-8 -32t-3.5 -34t-1 -30.5t0.5 -24t0.5 -13l1 -24v1h165l-50 -59h-114v-393l7 -48h-98l7 40v401h-50zM483 148
q0 -167 -29.5 -238.5t-83.5 -95.5q-28 -13 -44.5 -20t-51 -20.5t-56 -18.5t-45.5 -8t-36 4.5t-12 24.5q0 23 10.5 34.5t32 12t44 -3t56 -8t58.5 -4.5q22 -1 37 16.5t23 53t11.5 78.5t3.5 101l-1 391l-1 53h84v-352z" />
    <glyph glyph-name="f_k" horiz-adv-x="1028" 
d="M33 441l50 59q0 143 133 217q95 53 201 47q80 -3 92 -38q2 -4 2 -9v-433l59 56q10 8 42 39.5t59 55t71.5 44.5t87.5 21q47 2 77 -4l-35 -50q-4 -5 -20.5 -8.5t-31.5 -3.5l-14 -1q-45 -2 -82 -13t-54.5 -21t-46.5 -31.5t-39 -28.5q42 24 82 9.5t69 -48.5t61 -83t58 -93.5
t60.5 -80t68.5 -43.5q-87 0 -143.5 36t-113.5 141q-51 93 -108.5 120.5t-106.5 -23.5v-214l4 -60h-90l4 60v591q0 16 -7 28t-20.5 18t-28.5 10t-35.5 4.5t-35.5 0.5t-34.5 -1t-27.5 -1q-16 0 -29 -7.5t-21 -19t-13.5 -28t-8 -32t-3.5 -33.5t-1 -30t0.5 -24t0.5 -13l1 -24v1
h155l-50 -59h-104v-393l7 -48h-98l7 40v401h-50z" />
    <glyph glyph-name="t_z" horiz-adv-x="1032" 
d="M26 442l146 179v-121h207l-50 -58h-157l-3 -339q0 -81 53 -92q54 -12 118 49q63 60 95 157l81 283h483l-560 -492l181 -1q263 2 361 323h1l-93 -330h-469l426 495h-50q-103 0 -142 -10q-100 -27 -165 -151q-26 -50 -49 -117q-44 -136 -141 -197q-78 -48 -141 -20
q-67 30 -67 127v315h-65z" />
    </font>
</defs>
</svg>
